<mxfile host="app.diagrams.net" modified="2021-06-16T21:28:00.076Z" agent="5.0 (Windows NT 10.0; Win64; x64) AppleWebKit/537.36 (KHTML, like Gecko) Chrome/91.0.4472.101 Safari/537.36" etag="w8EHOZZFtCVVWs7Kqhha" version="14.7.9" type="github" pages="2">
  <diagram id="APbTLmvHui8A75N8cNlP" name="5 Proxy">
    <mxGraphModel dx="868" dy="520" grid="1" gridSize="10" guides="1" tooltips="1" connect="1" arrows="1" fold="1" page="1" pageScale="1" pageWidth="850" pageHeight="1100" math="0" shadow="0">
      <root>
        <mxCell id="RaD5Mg1ZpP_LwJ2OzvWb-0" />
        <mxCell id="RaD5Mg1ZpP_LwJ2OzvWb-1" parent="RaD5Mg1ZpP_LwJ2OzvWb-0" />
        <mxCell id="RaD5Mg1ZpP_LwJ2OzvWb-2" value="&lt;&lt;Interfaz&gt;&gt;&#xa;IAlumno" style="swimlane;fontStyle=1;align=center;verticalAlign=top;childLayout=stackLayout;horizontal=1;startSize=36;horizontalStack=0;resizeParent=1;resizeParentMax=0;resizeLast=0;collapsible=1;marginBottom=0;" parent="RaD5Mg1ZpP_LwJ2OzvWb-1" vertex="1">
          <mxGeometry x="150" y="430" width="160" height="62" as="geometry" />
        </mxCell>
        <mxCell id="RaD5Mg1ZpP_LwJ2OzvWb-5" value="&lt;h1&gt;&lt;font color=&quot;#1a1a1a&quot;&gt;Proxy&lt;/font&gt;&lt;/h1&gt;&lt;div&gt;&lt;font color=&quot;#1a1a1a&quot;&gt;Al cargar objetos desde archivo, tal vez se desperdicien recursos instanciando todos. Entonces no se crean todos sino una vista previa.&lt;/font&gt;&lt;/div&gt;&lt;div&gt;&lt;font color=&quot;#1a1a1a&quot;&gt;Permite crear objetos con funcionalidades minimas y agregarle funcionalidad completa cuando sea necesario.&lt;/font&gt;&lt;/div&gt;&lt;div&gt;&lt;font color=&quot;#1a1a1a&quot;&gt;PROXY PROPORCIONA UN SUSTITUTO LIVIANO DE OTRO OBJETO PARA CONTROLAR EL ACCESO A ESTE.&amp;nbsp;&lt;/font&gt;&lt;/div&gt;&lt;div&gt;&lt;font color=&quot;#1a1a1a&quot;&gt;Cuando no puede responder peticiones, va a crear el objeto completo.&lt;/font&gt;&lt;/div&gt;&lt;div&gt;&lt;font color=&quot;#1a1a1a&quot;&gt;Tambien puede ser un objeto de seguridad.&lt;/font&gt;&lt;/div&gt;&lt;div&gt;&lt;font color=&quot;#1a1a1a&quot;&gt;Puede realizar operaciones especiales para optimizar.&lt;/font&gt;&lt;/div&gt;&lt;p&gt;&lt;/p&gt;" style="text;html=1;strokeColor=none;fillColor=none;spacing=5;spacingTop=-20;whiteSpace=wrap;overflow=hidden;rounded=0;align=right;" parent="RaD5Mg1ZpP_LwJ2OzvWb-1" vertex="1">
          <mxGeometry y="10" width="320" height="230" as="geometry" />
        </mxCell>
        <mxCell id="RaD5Mg1ZpP_LwJ2OzvWb-6" value="Class ProxyAlumno" style="swimlane;fontStyle=1;align=center;verticalAlign=top;childLayout=stackLayout;horizontal=1;startSize=30;horizontalStack=0;resizeParent=1;resizeParentMax=0;resizeLast=0;collapsible=1;marginBottom=0;" parent="RaD5Mg1ZpP_LwJ2OzvWb-1" vertex="1">
          <mxGeometry x="250" y="544" width="210" height="82" as="geometry" />
        </mxCell>
        <mxCell id="RaD5Mg1ZpP_LwJ2OzvWb-7" value="SujetoReal null" style="text;strokeColor=none;fillColor=none;align=center;verticalAlign=top;spacingLeft=4;spacingRight=4;overflow=hidden;rotatable=0;points=[[0,0.5],[1,0.5]];portConstraint=eastwest;" parent="RaD5Mg1ZpP_LwJ2OzvWb-6" vertex="1">
          <mxGeometry y="30" width="210" height="26" as="geometry" />
        </mxCell>
        <mxCell id="nV1S3fN-9psfoPiMfW_A-1" value="reponderPregunta() -&gt; crear Alumno" style="text;strokeColor=none;fillColor=none;align=center;verticalAlign=top;spacingLeft=4;spacingRight=4;overflow=hidden;rotatable=0;points=[[0,0.5],[1,0.5]];portConstraint=eastwest;" parent="RaD5Mg1ZpP_LwJ2OzvWb-6" vertex="1">
          <mxGeometry y="56" width="210" height="26" as="geometry" />
        </mxCell>
        <mxCell id="RaD5Mg1ZpP_LwJ2OzvWb-8" value="" style="endArrow=block;html=1;endFill=1;endSize=8;edgeStyle=orthogonalEdgeStyle;rounded=0;" parent="RaD5Mg1ZpP_LwJ2OzvWb-1" source="RaD5Mg1ZpP_LwJ2OzvWb-6" target="RaD5Mg1ZpP_LwJ2OzvWb-2" edge="1">
          <mxGeometry width="50" height="50" relative="1" as="geometry">
            <mxPoint x="-5" y="533" as="sourcePoint" />
            <mxPoint x="45" y="483" as="targetPoint" />
            <Array as="points">
              <mxPoint x="330" y="520" />
              <mxPoint x="230" y="520" />
            </Array>
          </mxGeometry>
        </mxCell>
        <mxCell id="RaD5Mg1ZpP_LwJ2OzvWb-9" value="" style="endArrow=none;html=1;endSize=8;entryX=1;entryY=0;entryDx=0;entryDy=0;exitX=1;exitY=1;exitDx=0;exitDy=0;" parent="RaD5Mg1ZpP_LwJ2OzvWb-1" source="RaD5Mg1ZpP_LwJ2OzvWb-5" target="RaD5Mg1ZpP_LwJ2OzvWb-5" edge="1">
          <mxGeometry width="50" height="50" relative="1" as="geometry">
            <mxPoint x="390" y="230" as="sourcePoint" />
            <mxPoint x="440" y="180" as="targetPoint" />
          </mxGeometry>
        </mxCell>
        <mxCell id="RaD5Mg1ZpP_LwJ2OzvWb-10" value="Alumno" style="swimlane;fontStyle=1;align=center;verticalAlign=top;childLayout=stackLayout;horizontal=1;startSize=30;horizontalStack=0;resizeParent=1;resizeParentMax=0;resizeLast=0;collapsible=1;marginBottom=0;" parent="RaD5Mg1ZpP_LwJ2OzvWb-1" vertex="1">
          <mxGeometry x="50" y="554" width="160" height="56" as="geometry" />
        </mxCell>
        <mxCell id="RaD5Mg1ZpP_LwJ2OzvWb-12" value="" style="endArrow=block;html=1;endFill=1;endSize=8;edgeStyle=orthogonalEdgeStyle;rounded=0;exitX=0.5;exitY=0;exitDx=0;exitDy=0;entryX=0.5;entryY=1;entryDx=0;entryDy=0;" parent="RaD5Mg1ZpP_LwJ2OzvWb-1" source="RaD5Mg1ZpP_LwJ2OzvWb-10" target="RaD5Mg1ZpP_LwJ2OzvWb-2" edge="1">
          <mxGeometry width="50" height="50" relative="1" as="geometry">
            <mxPoint x="-5" y="533" as="sourcePoint" />
            <mxPoint x="45" y="483" as="targetPoint" />
            <Array as="points">
              <mxPoint x="130" y="520" />
              <mxPoint x="230" y="520" />
            </Array>
          </mxGeometry>
        </mxCell>
        <mxCell id="RaD5Mg1ZpP_LwJ2OzvWb-25" value="CLIENTE" style="rounded=1;whiteSpace=wrap;html=1;align=center;" parent="RaD5Mg1ZpP_LwJ2OzvWb-1" vertex="1">
          <mxGeometry x="510" y="550" width="110" height="40" as="geometry" />
        </mxCell>
        <mxCell id="nV1S3fN-9psfoPiMfW_A-0" value="" style="endArrow=diamond;html=1;endFill=1;endSize=8;edgeStyle=orthogonalEdgeStyle;rounded=0;exitX=1;exitY=0.5;exitDx=0;exitDy=0;entryX=0;entryY=0.5;entryDx=0;entryDy=0;" parent="RaD5Mg1ZpP_LwJ2OzvWb-1" target="RaD5Mg1ZpP_LwJ2OzvWb-7" edge="1">
          <mxGeometry width="50" height="50" relative="1" as="geometry">
            <mxPoint x="210" y="597" as="sourcePoint" />
            <mxPoint x="45" y="483" as="targetPoint" />
            <Array as="points">
              <mxPoint x="210" y="587" />
            </Array>
          </mxGeometry>
        </mxCell>
        <mxCell id="nV1S3fN-9psfoPiMfW_A-2" value="" style="shape=image;verticalLabelPosition=bottom;labelBackgroundColor=#ffffff;verticalAlign=top;aspect=fixed;imageAspect=0;image=data:image/png,iVBORw0KGgoAAAANSUhEUgAAAwYAAACgCAYAAAC2a3u6AAAgAElEQVR4Aeydh1dUx/uHf/+OJZrkaxQLoqLSixQBaYoKFsCIIlGJsSe2JNbYjYk1WLAgVcSCUWxYoigxJooNNaBBZGXveX7nLuxyd9mF3RUs+HIOZ+/dO3dm3mdm585n5p25/4f8CQEhIASEgBAQAkJACAgBIfDRE/i/j56AABACQkAICAEhIASEgBAQAkIAEQZSCYSAEBACQkAICAEhIASEgBAQYSB1QAgIASEgBISAEBACQkAICAFEGEglEAJCQAgIASEgBISAEBACQkCEgdQBISAEhIAQEAJCQAgIASEgBHjvhIHCgyPfkzzvMH/rpXyEgD0EpM7YQ+ndhJGyeTfcJVUhIASEgBAQAs4ReM8WH+spXxPNp36ruFLvhEG6Upb4uNCpUw+6JWTy3Iko5JYPjcAb1pkPzdwPKr/vomz+48ySOBJ3PrRKSv/3NhKi11Jaa/WyfCkEhIAQEAJC4KMm8J4Jg7YZYdSVLMF3fMcXBrriRUTNP4Pug6zCChXbJvB5px4GIWcQc4E/cc0kCBUq90zmC831TzyXUdLM2LapM7YR6iieN4b5xc0Stn2LI1eUx/yW4EZnjZ0qi06detKthyd+cfP55dxTPswJtPYum+agddfWEjIojUNPlOYX1W+Uh/w2zpvozXc+UKbWzZJvhYAQEAJCQAi0BYH3TBi0hUnwsQiDuvxZeKYdo65tsL2TWJT7GcQHLeOczX63nntbJzDs20vvSADVkZ8WRFp++1JWnu4hIWgll00cFHRVdynJWMyIgeEsOFmNja7uOym39zJR5QkHkj3wW3qlxbpSe2YxnoNmU1D9XlohmRICQkAICAEh8M4ItKMwqKOy7DxHc/LJP3mNezXt063RPfmTkqKj5BeV8ldVw7hq2woDhee3z1FQcJ47NY3lVPuAS4UFHLv8uIUOiOP211f9zcXjR8k6cpSTpRW8aGWYuE2EgVLDPxdOkH/iBpWmTqllfXxN1d9XKc7P5Uj+Ga4+cMIPw2Y6VRxOCWNGwX+WiTac199iVdhIVpWZphKsh3PgW8c4OysMHGPWXBg0GfS8+Ft8I3/mr1bqAyjU/FPKsfxi/qh83RSB5VF9NX9dOEVedgFHfy/jkRPFaRllW52rYqi0uJCsI4UUX33ISwci1pdvIqzHKDa0Bqr+JiuCBjDy1wqZNXCArwQVAkJACAiBjk/AujCoKSStX0+Ti0enLkNIzW3sFeuu8WNAgx9/g8tDP6J/vmtGqub6ftJDPXFxjyR6dCIjw4Lo0zuYxJ9KqLSiD5SKDEb3+MKUXlfPZZy32UltTOplOZlzxuDe14/gmImMjonE3TWI8WvOUnHmzVyJlCcHmdjzCzp9MoLUeRMYPCCC6MhgXH0Xkl96mDRfTzzD4wns70HMxrJm4sBR+1EqKfphAoP7eBMQOYH4hIlEB/kxwH8KiVETWHdL2ylWeLAziR6dm1xwGsqh6byb/2pKLflpy7RbMhnVCjU3MkkP9qCvZxyxEUG4D/+eIjMXjBeUrJ/GcHd3eruPIDIumbEjY/Hs503k0lNWyxIn0nl5fAH+iQesxqcrWUbAqO3ctegUO1VnHOGsPGTnWGsuPkbOLvj/cLVZ2YMTzFQPl2YzBpqfVG0BU73mUmSatHhJftpQuhhcjnoTn/EcpeYmGelRuPYNIiI2Dk/3GL4remoxy1DHX1nLiHV3x80/jrixicQEB+DSN5yULaVUaX6bNfmz6NfFaGsPuvRNx9QEXF5NQLema50+j+dnzW4BzpTN85ItJA/3o3dvP4apv4Gx4wjzHMqAyOUUWWs0NHgaDuv5Y3k4n4VtsUNA1XN9eQSfh23htkW9ahatfCEEhIAQEAJC4CMiYF0YGAAoPM5IwT/9BC+sAKkvW09YsNb1oSGQrmwbo9zDmZlxw6yjUXu3iO9j/AhYUGz2fbOoXxxgol8rwkD/gANfBuKdspvLjbMEajz6Z1f45csIQuPicH/TNQb626wJcaFHyHKKDZ3lWi4sCuPzHiGkHb5n6BDW/7OdUR7aDhs4Y39t4Vy8otdy/qm2l6JQVbqZkf2Gs7TU+uivUzMGulIWBySz9tAywgZHMWvfTZ4bOoQvuXFoN0fvafPwmopLp7l49z+zkVXl+RVWRQcz3dYov1oYjqSju8LSoAQ2azqXDfXiPwqmh5C494lFB9ei1thTZwDnODs6Y+AcM9vCQOFZwRy8Yn61slPXay4uDidhbTbfhvkTPOsgNxoKk5ob2Ww/qh0R13N3byqeAbPYdflfs/J8eaeQpdEBRKy6itnkgVJJxsQw0o9Zm82pp2z1SIKXXbMijjTlY2fZ6Couc/LiPfNZMuUFpavG4jW9yGobpEkF9PfYHNkXz4UXW85P4026E/Nw+2w82x9r1JBZhHIiBISAEBACQuDjI9CCMABqTjPbP5HtFdrOogrpJSdmDWf0tvtmHQz099kxJpDEPRbfG7k+L2GBfxiLLlgOZxsDAHZ0JF6eWIBv9BZuWotGV8aasH50f9NdiVRhEB7F8mtNnfLaQ9NwTy1o6qTozjHXO5UDxt6Uk/a/ODiNwWN3cKuZ30Qt57duIt9G58VpYeDdlx4+09l9o1mCmoJo6VDPvc0JhK/507z8tbeowsDudPSUrx1NyI9/YDY38uQgid6zyGtteyk76oyaNec4OyoMtBC0xy0zayYMFB3Vdy9zZO0MAgaOZMV5ox+bNk5VGATzaY8QUnbfxFoIU+jqAlK9ktjxj+VvuTFEVTGzhyWyzUwYQs3JhfiP2U2zJqCmmFl+E9nW7IIpxYYDO8vG4i7Tqf7er8SGb+CWjWybAtYdZ3rfPoze+axlEdl4g/7uL0R292F2ey0qN2VMDoSAEBACQkAIfDgEWhYG1HNrTRxBFov5lEf7Ge89i3yLDptSuYd4n0WcsdZhNzDRc29LAv6LSm0TarUjoePkN6EkZtpeOfhsz5e4tIUwiEhgk8aHRRUGPnPONo1I6s4xz6dJGDht/8s/2JLgw/96qW4UE0lMXcB3K3dw8Pe/aWlphtPCwD+ejbY6iJYlo6uk9PAvLJ09i5SkqSSnzGbO0k2smRrO8FXlZh15s1tVYeBAOoZFyH7fUmwUWei5+/M4/OaWtL64utU605gzpzg7IQycYKYKg9Fa95zOvfjUJYCIlLXk/GlLwKnCIIzojfdsC7RG0+uOzcE9bBG/ZR4m0+r/IVZPCGRcxr9mxUh9OWsiIllq5pum8ChjMt5pha1vCWxv2fCax6U5bFq6kLSUVBKTZzB9zgp+WjOTgOHruKlVjOY5bDh7cYBx3d2YnPXK2tXm3z3PJKF7fybZG755DPKNEBACQkAICIEOR6AVYQBK5SESvWdwpMpoez3XV8QQtKy5f3X9jbUMj91GRQuz83V56QyddtQYWfPPVjsSL9mfGML8szbVB7rib/FsC1ciB4XBm9n/ikdXT3Fwx1ZWLvmOtImj8XTph1vcZi5a8+UCnBYGAZPJsK2rTGWiVJ5i0XAP3EKmMW/VNnbuOUDGzl1sXLmM1DAvQloTBnam05BgFVkpIUzJasxYfRkrQiL54WprPUL7ZplMRuEoZ8eEgbPMms0YNGW4haMGV6LxGRYK3codtQen0st9FAnjJzPe5v9Uvs16YHG3QuX+qXhPyaOpCShjRWgky2y4uJlF0OrvWV1g8YSiRTG4ukWTPG8dW3ZmsjdjD79uXMe3qbG4hdghDF5mkfiZK0mH7BQGVXsZ230Q09p5tykzFnIiBISAEBACQuA9J9CqMIBX/D53ONEbG/f9rjlJus/EZi4Hqp1KZQZjfRdju8/edjMGSe/ljEEb2K+tMDXl/JYcSOiqW1ZH5ttXGNRQlB5M2LLzVtaEKFT8PI6wNhUGYHARi8/gvgJ1Z5fgF73VjoWkjgoDLeDG4xY5OyIMnGfW3sJAd+F7/CJ/5k5rLjlW8FBbwly/eDY2rtStKZqLz+jdWHgdWbvTLtdANT6vsJWUaFc/N8amVGxnZJgdwkBXwhz3PkRt1q6rsJ4l9dv6m+sI7j6cZZftEJ62o5ErQkAICAEhIAQ6FAE7hAHoy7cQ6beIM7V67u9KxjPtKFYHnPX32T46kMS9D6y7Njw/y3y/ML5racshO0YYa4rm42NzjcFNfgpvozUGDs4YqGssHLZfddUYNY09NnZeqc37Gs+vrL+rwCAMph1t3dVGW2UNi4LtmDFQt3QcPp6t1qZ/lCqK54a17krk0IyBumBZXYQcx0+3qslPG0bCrsd2+Yvbsy7F4BLjFGdVGAxjWp5pSyAtTfPjN2DW3sIA3TV+CApm5lH7fPDNDdNTvn40fvPOUat/yK6EINJaXfjRGEOrv+d6bqyIYdTWB1bKWqGqeBH+9rgS8S97xrnR76si8wXU5oaYzl4cnkYvlxlkt7gwwxRcDoSAEBACQkAIfBQE7BIGKM84MGkYiRmn+DF4hM1dclRidde3Ejsogpl7yqjWuBTV3j3ODzG++M09xTPN980ot9qRULcfus/+pAC8UzK4ohll1FddZdtkdVei0W2zK5GjwsAZ+3VXWOLTH7/0I5RbdFJ090+xODyIKVmW2042UFNdl4I9Z5HzSDsM/JrKq7msnJbO5qbXCDdhtlcY8JyslCDiNt8y20u+9l4xGyaHM6iPexu7EqlZ1PPnujj8py8iYeh0sky+K03Zt3pkT51xmrPacY3CM60AM8y6J1zNWse01F81WXKeWbsLA3Vi5dwawtxjmHPgltlvE15TeSWbH8aNIGn3Q409TYfK0ywmeU4l4/hqgoetaL4dblNQ8yM7yqY6awaecb9Spl1KUVvBiQ1fETBoMC72uBKh8GhnIj09llh5O7Z5ltRZ0OPp3rgkZfHM8pKcCwEhIASEgBD4iAnYJwzUDm/JEjy79uB/I3e16kLw4uoepgd74OIeRcyYJEaFBdPXJYgJq07zWNuHVcHXnmBm/16mdxhY7smvnn8atgmzrfzV+2pusefrUQzo409wbCJjYqMY7DqMhJVnDO8xGNq1B506D2DiPuud6pbK3PQeA3Wf+C6DmZrTsF1j7aFUPu/Ug88itzbsf64uPh7ck06fBDDv96Y1Dw7Zb5gxSOSb75LxdPMnKHoiCQlJxIYF49o7iAnrL1hx5WnMvVLFmRUJDOgTQFhcMvGj4ggYNJBe7nGkrjnBXVOW6rm1NpZPDfvea/afN553dmP0juYjtvq7OaT7D8UtIJ4x8ROICvKjd/8oUjeeoXTTWLqp938awxrTylDn0tGWhfJgD2P+14uB6afMBIk2jFN15g04K1XnWBHrTZ+hscQlJDNqRDiDeg3EfUQ6a47dM8uaw8yUx/yWYOV9CZ3dScmyvrik/tYmwj61Uo6G8vyCHqN/s7HOR6H6cgYzh3vhMjCCqNHqeyni8B84EJeh8aT/fI5HNj1r6ihZMIyunVxbfjGYM79n/T0Op4fRzy2c6DHJxEVF4t7bk+DUrRSX/kK0YVF2X4avaWGxu1oKVXlMcQ1gTnEr6wxqipg+wJf0IgslblaSciIEhIAQEAJC4OMjYLcwcBxNHZXXSyjIziPv+BXutvYaX8cTMNyhqyznbGEBuUUXua15p4GT0bXhbY7br39RQenJQrKy8sgvvsY9O5nVPrpueCtxVt4pzt166phrUWsW66u5XXKcI1kFFJXc5plJbLR24/t73TnOr3h07Qz5WbnkFV3k1pMWXIvee2aveVZ+kaLcPLLzi7lQ/qxpp613Vmx6qm5foPBILrlFFyh/1rRNsP1Zes2V5ZH0TzqM2Xv6zCJQDO6QruFWBhvMwsmJEBACQkAICIGPj0A7CoOPD6ZYLASEwLsloDw7StqQSH68YkPBvrzAQt9hfF1kfTbm3eZeUhcCQkAICAEh8G4JiDB4t/wldSEgBNqUgEJl0SbWFT6xGqv+fgFrNpzhaUvrnKzeKV8KASEgBISAEOj4BEQYdPwyFguFgBAQAkJACAgBISAEhECrBEQYtIpIAggBISAEhIAQEAJCQAgIgY5PQIRBxy9jsVAICAEhIASEgBAQAkJACLRKQIRBq4gkgBAQAkJACAgBISAEhIAQ6PgERBh0/DIWC4WAEBACQkAICAEhIASEQKsERBi0ikgCCAEhIASEgBAQAkJACAiBjk9AhEHHL2OxUAgIASEgBISAEBACQkAItEpAhEGriCSAEBACQkAICAEhIASEgBDo+AREGHT8MhYLhYAQEAJCQAgIASEgBIRAqwREGLSKSAIIASEgBISAEBACQkAICIGOT0CEQccvY7FQCAgBISAEhIAQEAJCQAi0SkCEQauIJIAQEAJCQAgIASEgBISAEOj4BEQYdPwyFguFgBAQAkJACAgBISAEhECrBEQYtIpIAggBISAEhIAQEAJCQAgIgY5PQITBh1LGykOyFk5h1p476N/nPCt66nWvqdcr73MuJW8fDAEFfX09Ot1rdLp66t/ryv/BQLWaUUVfb/jtqqzr7QItZWMVpHwpBISAEPiACYgw+FAKT3+bNSF98F5yBZ29eVaeUrJxJmGD3PikS08+6e6G69AIoqftoay+9Uhqzi4nbPxuKuzt4+sus9SvD127fEG3MXt51noSEuKdE9BTX692ujX/9fXvifhUePTbJHp+0osuXXrSpUsvPL+9ZH/9f+dsP5wMKI/2kdCzF10NnHvyiecyzrfY0DhXNvq720mIWM35mg+HjeRUCAgBIfAxERBh8KGUtvKQnCVfMT/T3hkDPf9sT2Rw2FKyrj+lToH6mqf888d5ik6XU91aZ19XxqpQH7489JTWgloi1F34Hv8EEQaWXJw713FyThxzi1vspTkXNS/IShlsEI2dO33R2PlWO+A96drNjYHBqSzPu0udk7G39W0v9qbgJ8KgrbE2j+/FASb6tSYMzG+zu2yUJ+xP9CFibTl2jE2YJyJnQkAICAEh0O4ERBi0O+J3lcC/7E4IZt4ZZzqUCk8OpeHq+yOXnLhdhEFblnkd+WlBpOW3Y/e8NofJPgvRag+l7gk38tYxbmgASfsq3osZBLs7n22J/2OMqz2FAVB3bhlebjPJrnJ0yOFjLAyxWQgIASHwdgmIMHi7vJ1IzXE/3gZf4QdsjYtkaemrJjcR1UXEnmex/i/Wh7sRtvavVjuEdY9v8ntBHtlHz1P+rGEMsDVhUPv4BsX5ORw+coILd57bNXKof36P0uMFHD6cT9HFv6m2OtzY4Baj+kebm2lkqPqoa66o6yEameir/qQ4t4DTf75ovLeWexcKycovpaLWdrHpnt6mpDCPQ1lHOXn5ATWa6M3uMqZl+LKOR1eLycnKo/Dc3zy35TdvuKeGnNQg0nJrmspRdftpZqNZaoYTuzlbEQbG2HQ3NxHpt4QSGwLRbvuNEQK6Z3e4WJTPoUP5FJXet81Mc496+PEJg4Z6a3T3r3v0BydycjhSeJE7tiqNYZ2ART1X4Rnqklpv7GgD2lkYUF/O6mA3ojffbbV9sagCcioEhIAQEALtTECEQTsDfrPoFe7vSDLzsR4y/3yLPtb621uJ/l+jr3DnHnRu9Bk2+Gh37UWP2O38Y6sj2pjZ+htrGfZpDD+VtxDw5S32zhrFwH4BhI5MJiEuBo/+gYxdfoq7JTZciV5cZ9eMKFx7N94zZjR+ru54JKzl+CMbaekrOblqMp79vAmISmTc+CRigvzo75nMsuUziJhT3MijlvyvPAxuMV36zaHQNMCuULknhV6NfuouqYUNrjHKU/YlDqJr514Mm7qIkYN9CIqNx88tmFl5V8hMC8XNawwjg73pN2ITV0zxNUKq/YuD88Yw0MWHYdFJjEsYT5jnYPr4TmNDyTNzYaIrZYlPH7p09SI98zgr4vxx9RzJ6IRkov086BO4gNz7FvYrD9kVP4BPuvakS6cedNKWo3rctQ9+S0ut1wVHObcgDKgr5mvPaRx6aVGTHbG/8dbnJZtJDPahd79AgmOSGD9+IiO8PXALW8bRR7YUVVO6bS8MFKpvHCdz3wH27m3p/yD7sy5SYRCjztzTZIP9R6+5sCSE7l164ZZ+mMIVExjsOoyw0ZOIjw7DtU8E3+Q+NO9YvzzGV64N6zH6zTje5AKmPGHPhIENdanLIFJbm31qb2FAPWUrIvksZAO3rAp8+ylJSCEgBISAEGhbAiIM2pZnu8ZWmzkVn1aEgSkDymN+jYvk+yuOPnkVKrbG8+mQxZy1MUqM/gGZkwLwmbqXa5rFCkr1dXalRhI8Mo7B8RZrDHQ32TTSj6D0Q5Q913QCdQ85sXICg/0WUPhE871qiFJN8YIIPMdt5Vyl1g6F6uv7SfPui8vUgqYOkHpPXSFpPnM1wsBEhLrCufikNQoDw9d6ytdE061HDEtPN3Tma0uXE/C//vik5XBPTVL/gB1jA5h+VKMM9HfJSBxG4Fd7uVKl7dC/4p+jq4kdGsOPFyx70q/IThlMj17DGL/5CiYvCuUFl1aOYUjyYSotzG/IuYOuRM5wtiUMlCrOr07AM/EAD7R5c8p+qL9/leJSy1mV/7j8UwKeqQVUNxWV1aO2Fwb13Nr7HZMSp5LY2n/qJooNGXTmHqvm2PVlbfYM+vQYiOf4XyltqjQ8v7SOqCHTyLRSaeryZ+EzUyMMTCnVUTgzpHW3tHYXBqArXsjATxP45b62YpkyKgdCQAgIASHwjgiIMHhH4J1J9u0IgzqK0j3oPmq3jY4qvDyxAL+YrdyyJhx05WyIcrXYlUhPxY4kPJMOYb0fUMO5xSPwXXDeDEv99bWE+H5L8XOzr00nNccWEDH3jPmoucPCYBTBy683xVGbTfKgGRwxpfmacwuHk7ivaRuVqux0vOIzuKvVBKZcwfPTiwkauY2/za6rwsCLyLU3zYWMel/NESZ5zqXIGk8cEQbOcaY2hy/dJ7Aso2HUfM/uXWz4fh4JAT54jFlHsYVgc85+DSCLQ+X+DuKGr+WGVvtZhFFP214YWEnkPftKFQZukZu4odGlDVms4eCkINKtVJoPQRgo97cT3d2L9ONWK/17VgqSHSEgBITAx0NAhMEHVNZvRxi8JDOxL58nZWPdtV7HyW9CScq0Pb5blTmVPmM1MwbKE3bGhzLf5hQEKPd3Eue7VFMaem6vjSN0xU271iCYbnRYGMQRu+lek0tGbTaTPOdzwtRfsRQGdRTO8CF0doZt95OM9Uz0TGSH2WjuK7KnhPC1tY5Q3THSfOagnZQw2eOIMHCKM6jCYFLfQKKNo+Zjo+jfbRDRP12lSQ4Zc+Ss/er9r6kszWHzsoWkpaSSmDyD6XN+ZPXqmQQG/8R1EQZGyKZPVRj4fH2qSbiarqiCMYQZVirNhyAMqDnMxO59STz4ymSRHAgBISAEhMC7JyDC4N2Xgd05eDvC4BVZk/rz6cTDVjqFalZfsj8xpMVOvu7sYry125XW32TF8AS2tPRChLoivvKYoWGh4+z8ECZqRuo1F20ftrsweMXBxIEMjkxp2f0k+XuyKrRTBm9BGDjFuUEYmO9KpFB1eSdJXsFMybxnIcyctF95yoklI3F1iyZ53jq27Mxk35697NiygcVpoxgQ9C6EwWsuLQ2lm7qGo5X/zj2nsP+p6vbizD22q2trVzqsMHiRSUL3AaTkiDBorQ7IdSEgBITA2yQgwuBt0n7DtN6OMHhNyYIAuof/zB1tv9aUdx3F34SSmFll+sbyoCpzCr2tzBi0tHWq6k4yymzGoJ6bq2KJWHO7aTTfMiFr5+0uDF5z4bswItfb+z4JYybfgjBonDFwjLM1YdCQZ92d/SR6jmK12cpr5+yvKZqHd9gqSkx+8kYuoDzaRVzouxAGTXl4X486qjDQl28itHswiy+9fl/RS76EgBAQAh8lAREGH1Cxvx1hAGrH/os+6eRZrp9tZKWuMfCN3sJNk7uNBqKunPUjLNcYKIY1Bh6JmZgNoptu+4+z30Y0W2Ogu7Qc/4DvKWnuz9J4p44HV65xV+t/rc48eM2i+cYrtVz/aQwDp1kuPnbUlQh0l1cT5DmHfMMIssmIVg7eRBgMY1qe1khbSTnHWXUlMp8xMMavUJnzNV5h67iqKWvH7a/nxooYRm19YL5bkyEZhaozS8SVyIjc4tMpYVDwDV5mi+wbI31Zxk9RPkxr/uMwT/UtLD6uyfoKl17TOPzCPGk5EwJCQAgIgXdLQITBu+XvUOpvSxgolftJ6OnP3N81vUFtTvX3yUwOwDslgyuaEWCl6ho7UkYQHDeGIc12JbrFllF+BM7M5LpmJyPqKihaPg53X2u7Ej0hb0YQg+M3cfqBeV50jy7x25w4Bvkt4oR2uYP+Dusjg/kq74lppkFf9Qd758bh6TqE/m0gDOA/zi2PZVDot2TeeG7e2dU95drhNUwImsIOM9cpZ4WB2qmOwjOtALMdXXVP+SN7PWlTtmpLBnROcLYpDNSdoSo5OHkY0Ru0b6p13P7qrBl4jtrKDa3YrLvPyY3TCXQfjMs7cSUyR/c+njkjDPS3txDp9Q15lcYpPz1VVw8wd8QwXPt6vgfC4BUnvvah18SDWKxrfx+LQPIkBISAEPioCIgweI+Lu7ZoLm5dW/J/7kPw6ptmFlQf/gqXzrbucSHgx2tWFjKaRQE8J2+aF+5fn0LbjzMLVXOLPV+PYkAfP4JjExkbG8Vg14b3GNwr+R5PNd+d3UjIqGzqONeUkZEeQ38XP4JiEhk7ahTefd3xHLeW4w9srDzV3SNv8Tjcew3FO2w8Y8eOZ0SgDy69gxi9IJOrGmHSkD+F6tMrCHYZgk/0BEaNCMPNxZfYhUe4lj2bfp170M1vJaWvnrJv4gA6G3zLe9I7Jbdhu8zabJI+70GnT0eyzrDJurr4OJCunXoxaI5mByTlBVd2zGV4/0EMCBxN3NgkRkWEM6jXIAZHz2Xz6Ycm33x9+c9EfGYsky/oMSbDtDuTrnQV/t0ar3UbwfKrzTkoVedZGScJONEAACAASURBVOtDn6ExjIpPJm6Ems4ABoXPZPXRe2bFYjixm/MLslLcGxk05KGzyzQOWHiJ6f/eRVzPL/jE/bumtyM7YL8hT/oKstIjcHULJ3pMMnHRkQzu7Unw1K0UX91OrIFBH4JXlpm4vcz/hn5djNysffYlbG15c/s7wjf622yI6Gta+9C5RyI7jFt66a7yvb9L47XeDFv+h4mZwXTlOaeXRuHSN4TouPGM8PPCxT2BhQevkz19KJ07ueC37EpTO6C+/6BfT1Na1tZbfBq2yeydA29UNjXHmTHAm+kF/3WEkhIbhIAQEAIdioAIgw5VnG1njO6PtQS7TmGf2c46zePXVZZztrCA3GMXTG8+bh7K/Ju6ylucKcgnK/cUl/55YRrZNw9lflZf9TcXigrIyiqgqKScSutbJplu0lWWcTI3l9yiUv6qNo6cmi633YHuX/48d5LcI/nkn7jErSfmMxttl9ArHl07Q35WHnlFF7lV2bprkTOcHc6vQ/brqf7rIoXZarmo9UX8yx3mbfcNOiqvnyZX/b1cuEN7/gTszpIhoMKjjEm4hq5vdXtax+KV0EJACAgBIdAWBEQYtAXFDhlHNQUzAhj2/dWmkcUOaacYJQSEwFsjUFfKEv9A0gtNLwp5a0lLQkJACAgBIdA6AREGrTP6aEMoladYu+YYj+XlpB9tHRDDhUBbElAeHGXNhjM4tG6/LTMgcQkBISAEhECLBEQYtIhHLgoBISAEhIAQEAJCQAgIgY+DgAiDj6OcxUohIASEgBAQAkJACAgBIdAiAREGLeKRi0JACAgBISAEhIAQEAJC4OMgIMLg4yhnsVIICAEhIASEgBAQAkJACLRIQIRBi3jkohAQAkJACAgBISAEhIAQ+DgIiDD4OMpZrBQCQkAICAEhIASEgBAQAi0SEGHQIh65KASEgBAQAkJACAgBISAEPg4CIgw+jnIWK4WAEBACQkAICAEhIASEQIsERBi0iEcuCgEhIASEgBAQAkJACAiBj4OACIOPo5zFSiEgBISAEBACQkAICAEh0CIBEQYt4pGLQkAICAEhIASEgBAQAkLg4yAgwuDjKGexUggIASEgBISAEBACQkAItEhAhEGLeOSiEBACQkAICAEhIASEgBD4OAiIMPg4ylmsFAJCQAgIASEgBISAEBACLRIQYdAiHrkoBJoT0F1cjk+3HnTq1JuEjBfNA8g3QsARAspjdie40bmTWqd60KlrMEtKXzsSg4QVAkJACLznBP7jzJI4Enc+fM/zqWZPz+1NY/hMbY8/iWXdbf17mWf939tIiF5LaW3bZk+EQdvylNg+GgKvKVkQyngRBm1S4rriRUTNP4OuTWIzj+R51nRcOjd2uo2db0MHvA8ug0eSsvo499ojYfNs2HlWxW/jIkQY2EmrPYPVFc3DratlvelJty+88I+bz5bTD6lvzwx8ZHG3ZxsAdRSle9FV+/tXj7v05gu3MOK+3sbpB29emrqLP+LVrM5Y1qEe9EzJf0elq6N43hjmF7/9Bk93bS0hg9I49ER5R7Y7kaz+LhuiR7+3wgDlIb+N8yZ68x3aUrqIMHCirsgtQgBEGLRlLajLn4Vn2jHq2jJSs7hecSAphHlnNA/E+hoeXM7hx9H+eEzJ5n5btqxmaTtyIsLAEVrtHrZqH+MCl1NqqjYKdc/ucCbje0YODiB5z10RB21UCO3fBkDVb18SuORK0wCEUsez2+fI+G4cg4dOY8/fbyYOVGEQMH4/1UYmylN2jI3i+ytN8eqOz8dnyrsSBnXkpwWRlt9+La3RdLNP5QkHkj3wW6phbxbgPT1534UBUHtmMZ6DZlNgqnRvzlKEwZszlBg6PIHXPLl1gaK8Qoou3KHK0IFsTRjUUVl2nqM5+eSfvMa9GjtGSZQaKq6cIT87n/zia1TUtHVPVeH57XMUFJznTk1jodU+4FJhAccuP256WDYrz3qq/iqlKC+fnKMlXH/0qlkIq1/onnDj9DFy8k5Req+Glgg43Smoe0LZ2SJysgs5ebkC25itCANjputusDIsnEUXbbnvOGP/a6r+vkpxfi5H8s9w9YG9c70dSRjoqLxxlvycoxwvbalsGguivpq/LpwiL7uAo7+X8cheZMZybI/PZsKgKRFd+U7GDBnPVptuBh2oDXC2bN5CG1BXeYuzRwvIzj/N5VbamWbCwFScryn/JZEho7ZjtTjttP+NhYGd6Ziy7fCB88LAEc6W2dKXbyKsxyg2/GXHM82BOmNIx+5nQEOulOd3OFNQRInpIfiKikvHyT12jUemAYBGCyyEga6ynDOFBeQeu0D5M1vPC0vrG8+VGv65cIL8EzeotEzHdIsTz5r6m6wIGsDIXyvabNZAhIGpQORACDQn8PLWYeZE+dLXPYqY0ROJCfLD1XMya04/4IwNV6Ka6/tJD/XExT2S6NGJjAwLok/vYBJ/KqHSau9YT+XpTST6eODmF8eosUnERYYzyC2UxBVrmRq1lNPGhuTlMb7q15NOnXriln6qqTOvPCFjXKOfeuchfHW0YURIeXKQiT2/oNMnI0idN4HBAyKIjgzG1Xch+aWHSfP1xDM8nsD+HsRsLGuKrxFF3V85LIz1xcUtjBFxSYyJiWKIyxACUrZxocrcGN2FH/H+pAdd3OaSeWwtcYOHMCR0HGPi4vDqO5SQhUU8NrtF4cHOJHpYc/NpnPLv5r9aM1qrLZ8armfMJbS/O+5B8YweM44wz8H09prKT78/sSJCWhAGBjeDIFKymgseR+xvyN0LStZPY7i7O73dRxAZl8zYkbF49vMmcukpG+WvtasdhIHyglvHcziQeZjMlv4PHCH30mPnHy66UhZ796JTFy/SM0+wIs6fvkNiGDlmAiO8htAvZClHzSuAsZbxV9YyYt3dcfOPI25sIjHBAbj0DSdlSylm1aw6h8kuXzSsxejUn9E7HpiX9csiZrj2arzel8iNd7RwHT9uQRiofsh/bhiLz5yzzWa62rMNeJn/Df26qG4wXqQfNzYMoFTuZ9wXDWw69/2GxiaAN2sD6uwvG+CttgE1ZWSkx9DfxY+g6ImMUX9nfdzxStzE79Yb2uYzBtoaof+LDdEhzDmtHU130H6nZwwcSUfhwa6mdrOzy1dkNY4W119ZQ6Bh/ZvqGx/MovONnVflITvHatYxWbpUdXLB/4erzdp/Ax4nOGuxQj1/LA/ns7AtWNMFjtcZY+x2PgOUp+ybOIDOnXoxLHURcYO9CYwejZdrKLPzr5KZFkp/z1FEB3riGrOV600/KWgUBmtv3iH323jcXQMJHZlIXGQYrr38iFtWREXTZFBDxmoKSTM8o3vQqVsyGdUKNTcySQ/2oK9nHLERQbgP/54iC5cqx581Rg71XF8ewedhW6yLWmMwBz5FGDgAS4J+XAT0FVl86RFMyvZrjbMEqv16npXu5MvAGOJG+DZbY6Ar28Yo93BmZtww69DU3i3i+xg/AhYUm32vxlh9ehlBnpNYX/LEzC1Bqb7Bb6lBfNpnFgXaZ5U6fZg9A5+vNcLAVDTqiFAIM4y9AkOWb7MmxIUeIcspNjRGtVxYFMbnPUJIO3zP8DCo/2c7ozzmUqRJR3/3AEme4aTtusYz7UDPy7/JXxrP0Ih1zRc91eaT0seNXkOT2XCxytRpU6rO831YAClZ/5q+M2UZcGzGQEfZlvG4B8wl449qTXyvuHt0FTHu4Sw40ZR2Qzq2hIFC1YX1xHpNI9Oi0+qU/bym4tJpLt79z6yDrTy/wqroYKYX/Kc128pxOwiD+nIyZk1lwvjJjG/pf0IKKT+d5bmVXNn/1SuyUwbTo1cACRs0nXqlipLvRzI0JZdnZuJQz929qXgGzGLX5X/NmL28U8jS6AAiVl3FbPKgpoDUgIWc1D7AzTKop3xNHDEb75nFZxbE3pMWhQEo97czavhabmg6B2+nDXhF9pQQvtYIA5NJdcdI85ljEgaG7/XOtAFOlI2a2NtoA3S32DLKl4CZmfyhVY619zj6fTzuAUs4of2+EY7tGQM1gML9reMZvuJmY2jH7VceH2PdDk0H24orkf7vHNbvK29MQ/1wPB31nkeFSwkPmkFGuabRRuFJ8UqiA6ew7fpLTRrGQwdnDJzkbEzN8Km/x+bIvnguvGhdeKiBHK4zjj4D1DYhmm49ollS/NTwzHh54Qf8PnfDJy2Hu2pbUn+PraMCSTd/CLIhKoSYkWEEpx+kTLPXiO7BaVbF+eEz6zhPzdq0RuvVgZKAZNYeWkbY4Chm7bvJc0O4l9w4tJuj95oeqs49a5oo607Mw+2z8Wy3eIY1hXDsSISBY7wk9EdDoJYT34QSvb7camOmu76RsM/7mO9KpL/PjjGBJO65b71D8ryEBf5hLLqg6dHU32RlaCizT2paHC3jF8eYGbaY3zW3qJcdFgbhUSy/1jT1WXtoGu6pBZhS1Z1jrncqB0w9sOfkpAYzdoetzlU1J2aPYMy2Cm1uGxp4tzjW/NF89L163xS8vrG+wNgRYaCv+I0xHlPYU9HUsGoz8fz3Jfj7/4AWM7ziQKIPY5cfbBw1z2TH5p/4ZkIkgzyTWf37M43AUGNz0n5tRsyO9dzbnED4mj+t1w1T2HYQBqa438aBKgy8GLHmhnlnXk26+iCJXgswW/dYXUCqVxI7/rFellQVM3tYIts0D1F1wd3WuJGsLGvsjdffYPuMNFYcN0qaavYlRrCwpKm+O215K8KA2mwm+S5q+n2+tTbACWHgaBvgTNmooNVOXru2AXoqdiTikZiJ9SbgBb8vCMN/UWmzYm9ZGIDaLvrOLWm4z1n7talaEQbay4Zjp9NRqCpZx8jASWy+rA441HMvewGhwd9w4I7FA8OUqCPCwHnOpuTUg7rjTO/bh9E7LdtYTSgH64zjzwBVGIwiePn1pud5bTbJ7unkNj0EOTM3mKQDmmeXOmMQ3huXhL3ctdZEvTjHQv9wll6y0tYYZlD70sNnOrtvWBNpRvvf/Fmjv/sLkd19mG3WuBrjd/xThIHjzOSOj4GA7jTf+E4ls8qWsf+yZ5y7mTBQKvcQ77MI7fpW87v13NuSYPbA0t/ezIhQ8xFH83usnzksDCIS2KRp2dQHoOoCYXp86M4xz0cjDOpOMMM9lrm/2XY/2b86BY9x+80zWJvPFJ/5WBvIrM1Jxyf9VDO3CzUC+4WBQuXOZHzmnWvKu3kOQF/BltgwizUDqjBwZ2jkl42j5uMJ7OuCS+zPXDGut9DG46z9ahy6SkoP/8LS2bNISZpKcsps5izdxJqp4QxfVW42K6RNsuG4AwgDWyPZtQWk+pjPStUdm4N72CJ+s+nidIjVEwIZl/GvBtVrSpdGkbCrwWVMd24Znj3dcEs82DBypzvDbL+vOGx64GtudfTQQWHw9toAJ4SBg22Ac2XTIAzatQ1QnrAz3mIjAYty1d/bRqz/DxbfWll8bBFCKwyctl8bpx3C4E3Tqbm2gwmB8cxeNJVh4UspfGStB2vMlAPC4A04G1MzfL44wLjubky24qppCufQc8OZZ0DDLGLsJs1Alyrqfb5tctNFx5l5Ic2FwQgfZh7TiAVTptUDPX+tH0PI8rLm7boqDPzj2Whr0MMYz5s8a4xxPM8koXt/JrXE2BjWjk8RBnZAkiAfIYGaQyT6LOasqedsyUBH8ZwgM1ei+htrGR67jQpr04qNt9flpTN02lFTZLqzi/GZeBBrfVNTICsH7S4Mao+Q2MuP8ISW3U8Sv80xz51DDXzTrfYLg3purIghdst9ixH+prjUrQnzUgOYlqedYm/uSqQ8u8yWiUH4Tc9tPvLopP1K5SkWDffALWQa81ZtY+eeA2Ts3MXGlctIDfMi5F0IA91llvq6NPrdN9860fDuBIPP8Re4JB/BphbWIrZ53EKH1YowqD04lV7uo0hoycVp/FS+zXpgluLL/Fn4Ti+itvFhHr16F2mek9j9WKH+1nrCY7bS2vPYLEJbJ60IA6XC3JXo7bUBLXC25UrkoDBwtmzUGYN2FQbqYsvhCWxpsaE9SurQr5uVasszBgoVGlcip+3XpmqHMHjzdF5wYVkU/+vmQ/L++807qNr84IAweAPOZkm+zCLxM1eSDtnqXDsqJp15BryBMIiOZdVNja+gmXENs0xWZ8INrkSTyWhttyAnnzVm2ajay9jug5jWRrtNiTAwoysnQqCRgGHGINXBGYMMxvq2JCaazxjU31xHWMRGylsa5LFSKO0uDHSlfOc3mg13HM1YO3cKUKjckYTv/POOzxhYbleqctXdYef4YUSts1h47ZT9NRSlBxO27HyzdSSq/3LFz+MIexfCwEr9ab+vWuiwWhEGugvf4xf5M45WM+XxbsYELae05gxzvCfwS4XKPojR2x/wdE8KgS35MztifIvCQM8/W8fhN7fEVBeVyrfVBrTAuY2EgbNl0+7CQHnCjrGhzLc9aoNTMwb6e2wdOZy5jX6bTtuvrV92CIM3Skd5yukf4vEft53SP48xLyyS1H1/WZ2VbciWA8LgDThrEaArYY57H6I2t7BrjkNi0plnwBsIA3XGoMiWqNHz509xDF9pZSbYXmHg1LPGjDBqPyK4+3CWXbYtYMzvaPlMhEHLfOTqR0vgJUVfh9heY3BjE+FW1hhsHx1I4t4H1v3In59lvl8Y353XTEPoLrPEP5zvSmz7IOru/8HVCnMfxrrcr/Gacbz5A6DmD1ZF+DLdcvGxg6OF6nsaLv8QidfMIusLq2zVC4ca+KZIDDMG0442t6cpiOlIX7Gb0R5T2WvdwZjnpxfj5/c9WsyGNQbWhIG65PBxDlM841hjth2FE/YbRtjGs9XaSKZSRfHcMHElsnAlQneNH4KCmXm0Bf9jU8lrDuqv8X3wONZnzMUrfg+PFKgr/hav2J/JSA8l5bCjc3CauLWHLQiDulu7SRgymvW3NA9j/X3eThtQR+60YGYUamfFGjJec3UdEe6zmy8+drQNcLZs2r0N0FOxfSIeiQeaz/QZELzg9Pww/L67pC1Jw7HtGYM6bm1PZkjkFkzF6az92lTtEAbO/wbukzs7hqDUg/zZWA2UZ+dYHhvB+K1/2JiFVoXBMIvZVG2GtcfOc9bGAqrbrRv9vlJn+Gz8OVhnHH8GvIEwaFxjoF3mZLKi+gxz/KJYflXTBhgv2isMnH3WGtMBXhyeRi+XGWS3UbMnwkADVw6FgJaAvuIQSUOCSdlxTTMCrKeqdDeT1V2JIv3MXInUe+uubyV2UAQz95RRrXEpqr17nB9ifPGbe8piVxaFyrw5eA5OZu3ph6aRR0M+6h5ybtdCwgaFs7DYfDcb/a1NhHvPIb/SOKJfz7MrmcwJH4ZrX682EAZqa3OR5WG+hM7JokxrjMGN/hqHfviSYUl7tcgMCw+dcSNQXTCCPWeRY+Yf+5rKq7msnJbO5mvahreO6xsTGBQ4lz3Xn2tcil5xt3A1Me5hzC2y3P2ouStRU8YVHuyfikfsr/ypTcZh+5+TlRJE3OZbaGVe7b1iNkwOZ1Af93fjStRk6Fs4amEk28qMgZqhF+fWEOYew5wDt8x+M6o4rbySzQ/jRpC0+6FF3l9xdLo/gwb5MyGjcXta3XkWePni7j7WbD2NxY2OnTYTBnpeVv7JyW0LiBgYRMq+v5u5brydNkDPrZ9G4T3jGE1NwL9c2fMt4Z4e9HVrA2HgbNk42MkzFohDbUBdGRtjfQicmcl1bdtUe4/CH+Jx91tEkfn2V4ZkmgkDfS2Vt06z7Zs4BnpOZ98dbQPgbN00WqSOOjR/wZnmqunQ4d9A3W0yUkYQNvdY8xcz1lzj53ERxK44b/GsUZNT3XCi8EwrwKyp1T3hatY6pqX+asqT4cBJzuaRKDzamUhPjyWUaMbEzMI4XGccfQa8gTCICiY6djhB6Ye4qVm3pLtfzIqR6k6DpzX9A41VdgsDJ5+1pqRecTzdG5ekLJ6ZvnuzAxEGb8ZP7u7gBGrKMvk63Js+g6OIHZNIbLA/rp6TWFl8nzMLAujaqQede6awT7Mn8Yure5ge7IGL+u6DMUmMCgumr0sQE1ad5rGxH2/G7TV3835kpPtA+vmMIm5sEqNGhDOolzteY5ex75q289t4o1LN6aVRuPQNITpuPBF+6nsTxvHt4RtkTXOnc6feBC6/hs74HgPVh7zLYKbmNAiM2kOpfN6pB59Fbm3Y+1hdfDy4J50+CWCeZgskpfoaO2bG4ObiQ2DUROLHjiPC34deLgHEpG/nzCPjg1RP+YY4PjPuj93ZjYTdjxs77a+5tDSUbo3Xugev47rxNiMHpYozKxIY0CeAsLhk4kfFETBoIL3c40hdc6JhOzljWMPnf1zdOZtgV3fcg+MZM3Y8YV5DcPFMYdXJSrMZm+dZ03HRviuh8yCSD1p40uvvsDXWjc6fDDPbzcZ++xsyp7+bQ7r/UNwC4hkTP4GoID96948ideMZSjeNbWDwaQxrTD6rteR/NZQuRm7WPj+LY8OfViuOGZF3faIv/5mIz4xrGL7gi4S9hpF8NV+6SyvwNe6v3j2KVWYVQKH6cgYzh3vhMjCCqNHqux/i8B84EJeh8aT/fA5TNTMZqS5AnMhnPaeSaeoAvubS4mC6eSzlnK0OiOn+1g/qiubh1tVoj/GzJ917eRMw9ju2n3tiVs+0Mb6NNkCpOsvSYHf6+owlblQcfv0H4T5yGYf/yGGa+q6HbhEsv1Lf9B4DtW453AY4UjZvuQ148Qc7p0fh6uJHcEwiY0eNxKuvO54T1nGyWUNbR1G6l6G9blpTo/LoQ68B4Yyds5tzJoWlLUlH7DfeV8/1VVF0t/Jb7uo2n+PNJ3kMW6Xa/RuwWDPUpW86uY0jxfVlGwn9tKmuWlszpFSdY0WsN32GxhKXkNz4rBmI+4h01hy7ZzSi6dMhzk23mR1V5THFNYA5xZYuOW9SZ+x8BpjeY6By6UmfqY278dVmk/R5Dzp9NpqNhrfaqYuP/enSqRdD5p2hbOPohufZJ7GsLbtN1vw4BrgOY/ioJEZHhdHfJYAxy0+ZCyzqubU2lk+tlL2h3nV2a/7ulUZQjj5rTHxripg+wJf0ojaaLgBEGJjoyoEQsEVAR+XN8xTmFlB0zvjmY1thjd/XUXm9hILsPPKOX+HuCzs6dvXV3LlwitysXHKLLnLridUniDEBtbtF5fXT5GYVGN7IXG1HEpqbHTrUPbvNuaICjmQf48SF2zxtg46XtQzUPrpueFtwVt4pzt162rprUd0Trv9eRPYR9e2697AHs7V0W/vOIfv11dwuOc4RtVxKbvOsnVi1lucP7/prnpVfpCg3j+z8Yi6UPzOfQfvgDHoLbYDuCddPFpCVe5ILfz23KVTeHN3bKxtH24C6yjJ+L8jniPqGdYv3h7y53cYY3pb9byudVzy6dob8rFzy7HrWwJtxfs2V5ZH0TzqMZgzNCPfNPt/SM0DNZN3jMk4X5JN99DzlVZajW29mhvFuh5416rs3diXjGr6pyQXOGNEbfIoweAN4cqsQEAJCQAgIASEgBIRAywSUZ0dJGxLJj1dkpKRlUg5cfXmBhb7D+LpI4+PkwO22goowsEVGvhcCQkAICAEhIASEgBBoAwIKlUWbWFf4pA3ikihUAvr7BazZcMaxDULsQCfCwA5IEkQICAEhIASEgBAQAkJACHR0AiIMOnoJi31CQAgIASEgBISAEBACQsAOAiIM7IAkQYSAEBACQkAICAEhIASEQEcnIMKgo5ew2CcEhIAQEAJCQAgIASEgBOwgIMLADkgSRAgIASEgBISAEBACQkAIdHQCIgw6egmLfUJACAgBISAEhIAQEAJCwA4CIgzsgCRBhIAQEAJCQAgIASEgBIRARycgwqCjl7DYJwSEgBAQAkJACAgBISAE7CAgwsAOSBJECAgBISAEhIAQEAJCQAh0dAIiDDp6CYt9QkAICAEhIASEgBAQAkLADgIiDOyAJEGEgBAQAkJACAgBISAEhEBHJyDCoKOXsNgnBISAEBACQkAICAEhIATsICDCwA5IEkQICAEhIASEgBAQAkJACHR0AiIMOnoJi31CQAgIASEgBISAEBACQsAOAiIM7IAkQYSAEBACQkAICAEhIASEQEcnIMKgo5ew2CcEhIAQEAJCQAgIASEgBOwgIMLADkgSRAgIASEgBISAEBACQkAIdHQCIgw6egmLfUJACAgBISAEhIAQEAJCwA4CIgzsgCRBhIAQEAJCQAgIASEgBIRARycgwqCjl7DYJwSEgBAQAkJACAgBISAE7CAgwsAOSBJECAgBISAEhIAQEAJCQAh0dAIiDDp6CYt9QkAICAEhIASEgBAQAkLADgIiDOyAJEGEgBAQAkJACAgBISAEhEBHJyDCoKOXsNgnBISAEBACQkAICAEhIATsICDCwA5IEkQICAEhIASEgBAQAkJACHR0AiIMOnoJi31CQAgIASEgBISAEBACQsAOAiIM7IAkQYSAEBACQkAICAEhIASEQEcnIMKgo5ew2CcEhIAQEAJCQAgIASEgBOwgIMLADkgSRAgIASEgBISAEBACQkAIdHQCIgw6egmLfUJACAgBISAEhIAQEAJCwA4CIgzsgCRBhIAQEAJCQAgIASEgBIRARycgwqCjl7DYJwSEgBAQAkJACAgBISAE7CAgwsAOSBJECAgBISAEhIAQEAJCQAh0dAIiDDp6CYt9QkAICAEhIASEgBAQAkLADgIiDOyAJEGEgBAQAkJACAgBISAEhEBHJyDCoKOXsNgnBISAEBACQkAICAEhIATsICDCwA5IEkQICAEhIASEgBAQAkJACHR0AiIMOnoJi31CQAgIASEgBISAEBACQsAOAiIM7IAkQYSAEBACQkAICAEhIASEQEcnIMKgo5ew2CcEhIAQEAJCQAgIASEgBOwgIMLADkgSRAgIASEgBISAEBACQkAIdHQCIgw6egmLfUJACAgB1zRBMQAAGfVJREFUISAEhIAQEAJCwA4CIgzsgCRBhIAQEAJCQAgIASEgBIRARycgwqCjl7DYJwSEgBAQAkJACAgBISAE7CAgwsAOSBJECAgBISAEhIAQEAJCQAh0dAIiDD7QElb09eh09eiVD9QAyfb7RUDRU1//Gp3uNbr6evTvV+4kN2+LgPKQrIVTmLXnjtSBt8XcznSU+zksTFzAntvy67QTmQQTAkLACQIiDJyA9q5v0V1agV/3XnTp3Jsxu/5919mR9O0goK9XhVxjx9vwWU/9+/J8Vx7zW8IAPunaky5detLlkyC+Pf/aDqskyHtFwEzc6Wk2ZmB23Yb4099mTUgfvJdcQfdeGWd/ZtRBk/pmv7VmNOyP8D0JqS/fSEj3YJaUvsXfZs15loRNZluFFX76e2xNiOOH8y/fE0KSDSEgBNqCgAiDtqD4TuJ4zYXvwkgQYdAm9HUnvyNi7pl26Qw9z5pBn0960qVzDzqrHW/jf1cXvhgYRdLyo/xd1yZmtEEk/7F3YtjHJwx0p5kTsYjiD7Y3/IDtcW50Ndaxrn0YtvwP6o01QnnG/sSBDeLPEKYXg+ecbV7flYfkLPmK+ZntNGPQzpyVykwm9OpFly5f0Kmz5rfWpRef9QkiZvov/P74fVHkxsKx71N5UMCSyYvJ/Ott5f8111fFMPDLbJ5Y0QWgULl/KgMjNnHTVNHss0VCCQEh8P4SEGHw/pZNKzkTYdAKIIcu1+XPwjPtGO3XP3/F4ckhzNb2PJU6Km8cZdW4AIYkHeTe23ret0jmIxUGdYWkec4iv/0qQIvU2+aiwoOdyQTOK6HWVoTKA7aNHsHCknekgN4KZ4WnO5MJWnZNI3zqqam4TOaieNx9F3LsmdWeri1qH+X3ypNsvnQNZfGlFupK3UUWenkxNbuq+QzVR0lNjBYCHz4BEQYfRBnW8fhGCQVH8jlacptnhtGZ1oTBKx7/cYb8rByOHCvlTrUdQzr6F9wtPUXu4Ryyi1q4xzBVr7rCWDxcja4Kqo+65pJhar9edW3QU3XrDLm5Z/nzeWOAlxVcyM8l/+J9250ZdDwtv0DhkWyy8k5zuaLG5kPImJahWOsec/VEAVlHjnPuzgsbPtMKqptPTU46nmkF1Fi4IGjtsFpVaiv5o7iQrMN5HLvwN7YxWxEGxgh15ayNHM6CElsuAvbbb4wSdDy7XUpRdjaHsk9R2gKzpnvUo3YQBoZ60VAn9FV/UpxbwOk/XzSWYS33LhSSlV9Khc3eLNQ+vkFxfg6Hj5zgwp3nTSPh5pnXnL3m2Z9qnTnCwawTnP+r2uY9hjpTU0Cq5yxya7TuXq+b13FTCsY1Gdq6rvDizgXyc45T+qAFhaH7l9sXT5F9KJvsoitU1Gh+LKb4jQcOplOVyxS/dHKqjfebf9bf2kB46FquN2sOGn4HDe5ujri5tTfnxvw7xMyaMDByqOHsgjDC1vxpXh+M7keGdqoxrPIfd0qOkVN4FdvFaedv0xi/7jX1lj6E6u+jsd1RrzWrDcZ2VQ3jwPof3bM7XCzK59ChfIpK79NiNTPiMX3q+XP9KHqEbeLPFgcs6rm5Ooovon/l7xbDmSKWAyEgBN5zAiIM3vMCell2gFnhPvQbGsPIhGTihgfS3yOJ5cfvUWLDlejFtb3MCPag9xD1nkmMiRyOq0sgCStO8chq463n8cl1jPccyoCAMYwZN5mxMZG49w8iYdkaUiK+5YRx0OjlMb5yVafqe9JvxvGmEXblCXsmNLoqdBlEauPQq/LkIIkuvej8yQimzh3H4EGRxMYMx817AXmlh0nz9cIrahzBA4Yy4qdrTfE1lkvtn0eYF+WDy8ARRI/9koRRsXj2GYxv8s+UPDV/hOouLMene0+6us0ls3AtcYM98AybSEJ8PH6ugwn8poD7ZvYrPNiVTM9PVHt60KmT1vVAPe5Fd7/lXDTablZX/uParjkEu7ozJHQcCQmJRPp54OKRzIrjj62IkBaEAXWc+DqISYea94wdsb8hey8oWTeV4EHu9POIImbsZMaPjsPb1Yuwb4t4ZI7MzKKGkzYWBspT9iUOomvnXgybuoiRg30Iio3Hzy2YWXlXyEwLxc1rDCODvek3YhNXLPvTL66za0YUrr0DCB2ZTMKY0fi5uuORsJbj1iszyoPjLI31pY97pMH+CQkJhAz1widhMhEx68w6xcqDvcT37EXXLj3p1KlHk5tXo7tX1+7DWXrRUrC9JP8rj0a3nN7EZzxHqSkjY2YU/foFExU3Bq+BkcwteGLeyXt+nnWJUQzqPRSP4HjGjp/M6BHBuLqN5Nujj83DGgrDmXRqOflNGON2W4tPx4XvRhC75a5F/VS4vyOp8XfQUO+HzD+vGW23Uk3gLXAGHGam5rUlYQDq7KDX9KKmtqamoU1T60DnbslkVCvUXN/PzOCh9PMeQ1xUMAODFlFQaf7jsfu3WVNImtpmNrp5df1kKNNyaxqg1l9j+bC+hvrXudMXdOnqSuSGv5qAKw/ZMVaz/qdrAPPPWm2QTPc8L9lMYrAPvfsFEhyTxPjxExnh7YFb2DKOtt4ANObrJiuG9SX0p9sWdcWUjOmgvmwtQZ9Fs+ZWM7VpCiMHQkAIfDgERBi8x2WlrzjMpKEhTN11nWrTM0mh+tpeUoOiGDnCn3iLNQa6G78w0j2S9P23MA7Kqybq7hezMs4fv2+OW/iLKlQVLyHQ80s2nHtiNoqmVJeRkRbMZy4zybXosKkPV5+ZGmFg4lhH4cwQ0rQ+GYYFjS70CF3OaUNn/hWlS8P53/9CSMuqMKSpr/iNsUNnc1STjv7v/SR6RvDV7mtUaTv0tfc4+kMCQ4ev5kLj89WUfG0+KX3c6OU5mc2l1abOlvL8MiujAkjOtOisNd7omCuRjhubxuEeNI/9ZcaRbwNl7p9YR9zg4XxT+NSUdkMStoSBQtX59cR6TmXvA1MhG25xyn7quV96htKKl+bpv7jGT7FBpOY8b7TY1kcbC4MGSyhfE023HjEsPf3MkK/a0uUE/K8/Pmk53FP7E/oH7BgbwHRtBdDdZNNIP4LSD1FmVpkfcmLlBAb7LaCwmfPzK47OCCJ6RSlVWpzKC65tSaK/9/dcsNavcsrF5TUXF4eTsCaLhcP9CZ19mJsvGrjW3spjx9F75p2q+oeUFl9tNkPw4vImYj1tj/KDY+noLq8kOGpL85HemuOk+6SQYdHBtawJtZlT8WlVGLwlzk4xa0EYKP9ydGYwURusrKHQlbI4IJk1B5YyfHAMszPLaSjOV9w6ksHRu02NkOO/TYXKvVPxm1GEtV9g/a1NRAQtp9Ra3TQV0CsyE0NaFQb1969SXPrAYobgPy7/lIBnagE2JpNMqagHSsV2oj9tXYQYbtKdYfbAvsT+8tC8zTGLUU6EgBD4UAiIMHhvS6qWE98MJ2ZDudWRO92trUT9z2JXIv19dowdRtJ+Gw10zUUWDwtlwVlN77u+jBUhocwpbuzRWPKoOcEsK4syHRYG4VEsv9Y08lp7aBqDUvKaHpK6iyz0m8I+U0e/muzUYOJ3WHSuTPl7wen5kYzcctf0jeFAFQZuo1l7Q2NjY4iag9PwTD9llacjwsAgYjxT2X9f2/NsykbNuR8Z5rsELWZ4xeEvfYlbtp+9ew+wd89eft2wivSEcAZ6JLKy2FJIOGl/UzYsjhTub53A8BU3zcSfRaD2cSVCT/maUQQvv97Evjab5EEzOGLqJb3m3MLhJJoqgJ6KHUl4Jh3COuYazi0ege+C8xYm/MehSX7EbbqFqSoZQ9RdZsfaQiz0V8NVp4VBMN17hDLlNyvpGdNt7VN5yNa4GFbcsDXiqgoDB9LR32FDVCRLzXavUXiaOQ0vOzqG9gmDt8nZCsAWmTUKg6WXqTW6BtY8469z2axJCcMtdBUl1po7VRh49aGH7wx+K2tppx0nf5svzzDHfwK/NltMVEvxnDDifrHV1hntt08YGENbfir3dxA3fC02q5nmhrqiubh2H8/2VkSk4Ra1LKL74GajbdVEK4dCQAh8AAREGLyvhaQ7zTe+qWRW2cpgNZmJgxmrmTFQKvcQ77sY2zPNCvd/mYDvwgumSPW3NzEi1L6HhekmGqbjHZoxiEhgk2bETRUGnl8XN3UULYVB3XFmDIph9o4DDR1ptTNt8Z+xOgXPMRnabEFtPlN85nPcysibQczM0LgQaO60XxgoVO5MxrelEVXlIb/EhbLQbM3AKw5PGoJH9BQSE6eSmJhEcP/euERvorRZD1YF7KT9qk26J5Qe/pVls2eRkjSV5JTZzFm8ntVTIwheXvaOhEEcsZs0HZ/abCZ5zm9yUcNCGChP2Bkf2uLoqHJ/J3G+SzWl2HBYe30nE93703NQOCPipjA1fRkrthym+K//bI9oOi0MwojR2tUsN+Zf6CqvcnjzSmanTScpcRop079l8er1TA2MYnlzx//Gm1Vh4Eg6Co92T8L361NN4kh/31An5xS/Ms+QlTP7hAG8Lc6OM1OFwUS6dVLdAxv+O3ftS2/P0UxdWUC5td+bykEVBv7xZu2UFTxv8NvUU75uNMMWlza1e+rofGUmiT6zyG11KN9eYfCaytIcNi9bSFpKKonJM5g+50dWr55JYPBPZq50Vu0DajKn8OnnqVjxbrRyy0syJ/bh08QjLawTs3KbfCUEhMB7SUCEwXtZLGrLfIhEn5Y6+TrOzg822660/sZahsduw9qW00Yz645+g0dKnvEU3dnF+Ew82NSBMF1p+cDhGQNHhUHtERJ7+RM5Ue1E2/5P/i7HPKPtLgzqubEihtgt9213Mqnj6FeBpBzRdsKauxIpVdf4JSkY7ymH+cdysNhJ+5UnxSwJ88AtZBrzVm1j556D7Nn9G1vW/EhauDdBH4owqL/JiuEJbGmxMhfxlccM8/I3ntU+5mrREXZsXMeSOd+QGB1M7889iF1zsWmWyhhW/XRaGIQzPsM07aGN0eJY4cmJ5YS5ehGSvIhVW/awZ18mu3dsY83iWYQPiGxFGNibTmOy1XlM9U7jYOPuO/U31xM2bEUrrioN99orDAyh25Wzs8xacCWyKBWzU4Mr0WQyWuugO/nbVNNSnmQxyXs6h027ItVTtnokQUvteW+EHcJAecqJJSNxdYsmed46tuzMZN+evezYsoH/b+/ev5o40ziA/z1QrbaKRlxECJVwUbksV0EIchGL2I0XqqAesK1ute6iZb3A1rJu3R7hdPESMIgaVDwIaEUUAauuQlXgVC4iEknOd88khsyQQUIqOeH06y8hMZN53887DPPkfZ9nvs5RY2mEY4HBsHYL5s3VoGKiIEoC9xLlGd5YoKlhYCBx4RMKzEwBBgbuOm6GeuwM3fSOGYM+VGQpZWYM/op6mW/LLd0UlpNkSmYMRtuPICauBPdty2cdEpn2wMBwC3uWr8HRqdbsnvbA4O2Mwa5Gybd+EjRhal0tM2MwvlypsJHhfyjLCkds0bjEa6f6/wr6vEjE7G+Srq83N86E58fXIWqmBAZvZwx2TXwwQ1gaoZaZMZCMhejJqwdnoFEloPDu+CjMBYHB0FXkBSdjf4NMWUdTN46nrH6/gQFeoy4/GinHf4URBjTtjkH84ckTSQWuKQUGIl/rj+/N2WmzaQ4MnPrdtOq8NldFWnX07VgM1WFn6Dr8SzSban2n/ePkgcGQfheCY75FgyTBxvJJpuc/IiXKscDA0LAXy+aoUfzIgT8Mxgc4FOWN4K+bJz4n2neGr1CAAm4qwMDATQcGEHIMopB4dIIcg/ZjiB+fY2ASEjjDkFUuXAzI/Btswu6wcTkGhmbsXRGLPQ0Tr6k1PL2D5ifSNfsjNTsRlHPRVtnDurtXbTiUEIIt45OPpzpjgDdo/tsqqLZdwrjiQ9Y9yT/+nsBgywX7/sjsxdRVhrTAjSjvklXG4PVvECaXYyAXGJiXEtRgS1ASDraIIzon+m/+lj0TpXLfspv6Uf/l9CwlGnxQD+2ZS2jutuWQSNmEHIMpLiWCyZxjEJhVAXnml7i+O84ux2C0/Z9QZ1dAfmn0CC5sjcDm8Zn0QmPNMwbbUS09zKXdsHtmSQp2ZMbAPJun/kF2Ns/U14gvJ11KNMUZAwCjt4sQEXMEbf16bFNl4YR8soZdrxwJDFzh7LzZNAcGzp6b3kobH5YiMXQ36l6Z8LxMg+AcxxKChTyldycfW2Yz1aVPZWYzTeir3+vwUiL0nUWWVwA2V9tXSrM7YIZ0+IvCDxvOvrT7L75AAQrMPAEGBm48ZkJVouxPIqE5cUf0DbAJfbfLoAlPQErCSvuqRG3/hloZh9zyNlElI2Ck8woKk0MRusO+KlFPdT5UAdk4fO2Z9BsfQzeaTu5BnH8Mdl2WLpcwPjiGVUE7Ud1jvTg2oq/lFAriw+GzWPUeAgMAgzdRGBOCqPyzuGcry2QeMUNvK84WahCRdVI6gk4GBsJFSKRqB85JSmC+Qe/d8yjK2YbiZvFFrwFtxzKhDCtAeeuA6I/wCDr1h5CsjMIOh6sSCc03ofv051Alfg9Jxb8p938A2o3hUJe0QxzmjXRdQ4kmDkpv5XtfSmTqKkeql5d5LffswH2Qv2+WM4GBMJvSgWPq5QjLrUCrePxHuqAvXAtlqH1VIsOtQoTMi0buqV8wKMkNf4OntYWIU+XglFzUIARVkRHIOSctNWvovYeqoh3YWHxHepyZnzkeGKBfh42qTJTcE19ojaDrSik0YaHwVrznpURC+4yPUJIYjZyCzxC4oRJjq1dkeiJ+yZHAwCXOTptNd2Dg5LnJimx6Aa0mApk/1uFAdDz2vbsUkXUrTB4YAP3abVCpS3FPcgL4FVdKtiJMGQCFg0uJYOpFWcZSBBQ0SP8miFpj/XH48hfwW6jBT3YVwqzv4CMFKDCTBBgYuPloDbVVYHtsMLyVCUhKXY+kyBXwMd/HoAsNeyIwy2M+PL02oKzbdhUk1ODOi1JBIdRxT10PdWwkFivCsfbAVTyVWUUhlEN8Uv13JCv98KfgZKjT1kMdHwd/hRKqNXtR3mIr+znGZRrAtX0JUCz+MxJTMhG/PAgKZQa+Ot2Kqq3L4OmhwPJvbuN172l8usBy4ejxgRIarSXAGD6zGR97zMfcmO8sF8NC8nHgQnjMDkG+6O7ApoE7OJG7GksUwQhbtQ5paZmIWxmChYoVSMw9jmtjHTLifnEKPrImHHr6IvWEtTrTG9zaHzOWjPhh+CG0jHcw9eH6wQz4ea9EtDob6SkpWOnvhwX+amwq0uOx+Mt8M8IQWssKELVECWVEOlLTMhEb/AkUqs9woPaZJMF3QLsVCk9bIqSHpz+yT43LKjc+wfGUpfCcHepk/y0jY+w8h7ywQPiuTEdq+jokRqzAoiUJ2FRcj5bSDIvBnAQcHEt0Hcb5z5fhA6ub3OPcJByWRCxjRwGECk1rvCx9kw0MhPsYfLoUnubPXYBFGp2lXOJwFdZ/PB8ec5NxxPzZQvJxGGZ5LIR/fr3tYkS4P0CeMP7LEbE6C2lqNYIXK6Faexi1Y2Nva89oewnUqV9hT0YEfJXxSFyzAWvT1yImONA8NoeuvxAFcrbthOCs7/oRJPkFYFl0JtLT1yFeOM4WhCB201FcEB0Aox3fIfYj0XiOM5uX/B/YrwwxolO7C2E+QViZmIX0lDREBCixJDIXxXV3UZqkMAdXcyJt91lwbj/SPnWfzIbXrCDkXhRfKYrfAwzrC+A7a+L+eHh4I7KoXbKRK5yBqZsJibyZ1vONaFw8FVtwZtyvnKVDo+g4oradN0TbWBKXfZA8QbUgx89NEjrzE0PTfgTNmg/5Y8X6/tfQ5wWZz/HWJGq7xzkJKBKXGTJ2QZsXBx/fWCSmZiMlcRUCFqkQuakUdS0/IOlDYZy9EXlwsiIEQH/1dvgqv0DtxIeOkAyHi9uCsXSr/m1pV2vb+UgBCsxUAQYGM2LkDOhpb8JFXQ0ujd35eLKGj6CnrRE1VTroapvxeMD6zf47thvtx6MbV6HT6qDT30BHjzh5Vm47A3par0GnrYH+xiP0O7ALuU9x5DXDbw/RqK9BZdUlXG76Bb12F+qOfMrk7xl+3oq68zpUVl9FY0fv5EuLRnrRVq9HlbYGtT93whHmyVth/44p9d84gIeNteY26YXjZZqsLK00YfBBA85V1qKlRzyrYt+H3/PKSE8H6mvOQ6u7ip8fT3QXa/EejBjsvIMr53XQVl5C3S0Hx2a4G3eEO1lXXoC+8T56prS0SLx/+Z+N/Y/QeFHoxxU03H9hC4Dk3z4DXp1+Z3c3m9LvpktG1Ij+hzdxUTj362/g/m9O/l4a7uFAZCCyfpK/94vQFdPz/yLDZ7U0OHFJH7kTClBgugQYGEyXLD+XAhSgAAUoMIMF+mrysSz82wmqWY3g5t4YBObVOnTTtBnMwKZT4A8lwMDgDzXc7CwFKEABClDAQQFTL/SHS3BetFR1bEvTM1T/43vUTak6xNjW/IECFHBTAQYGbjowbBYFKEABClCAAhSgAAVcKcDAwJXa3BcFKEABClCAAhSgAAXcVICBgZsODJtFAQpQgAIUoAAFKEABVwowMHClNvdFAQpQgAIUoAAFKEABNxVgYOCmA8NmUYACFKAABShAAQpQwJUCDAxcqc19UYACFKAABShAAQpQwE0FGBi46cCwWRSgAAUoQAEKUIACFHClAAMDV2pzXxSgAAUoQAEKUIACFHBTAQYGbjowbBYFKEABClCAAhSgAAVcKcDAwJXa3BcFKEABClCAAhSgAAXcVICBgZsODJtFAQpQgAIUoAAFKEABVwowMHClNvdFAQpQgAIUoAAFKEABNxVgYOCmA8NmUYACFKAABShAAQpQwJUCDAxcqc19UYACFKAABShAAQpQwE0F/g8gp/QTCJCQkwAAAABJRU5ErkJggg==;" parent="RaD5Mg1ZpP_LwJ2OzvWb-1" vertex="1">
          <mxGeometry x="120" y="290" width="628.88" height="130" as="geometry" />
        </mxCell>
        <mxCell id="nV1S3fN-9psfoPiMfW_A-3" value="" style="endArrow=none;dashed=1;html=1;dashPattern=1 3;strokeWidth=2;exitX=1;exitY=0.25;exitDx=0;exitDy=0;" parent="RaD5Mg1ZpP_LwJ2OzvWb-1" source="RaD5Mg1ZpP_LwJ2OzvWb-10" target="RaD5Mg1ZpP_LwJ2OzvWb-25" edge="1">
          <mxGeometry width="50" height="50" relative="1" as="geometry">
            <mxPoint x="320" y="640" as="sourcePoint" />
            <mxPoint x="370" y="590" as="targetPoint" />
          </mxGeometry>
        </mxCell>
        <mxCell id="nV1S3fN-9psfoPiMfW_A-5" value="&lt;&lt;Interfaz&gt;&gt;&#xa;Sujeto" style="swimlane;fontStyle=1;align=center;verticalAlign=top;childLayout=stackLayout;horizontal=1;startSize=36;horizontalStack=0;resizeParent=1;resizeParentMax=0;resizeLast=0;collapsible=1;marginBottom=0;" parent="RaD5Mg1ZpP_LwJ2OzvWb-1" vertex="1">
          <mxGeometry x="440" y="70" width="160" height="62" as="geometry" />
        </mxCell>
        <mxCell id="nV1S3fN-9psfoPiMfW_A-6" value="Class Proxy" style="swimlane;fontStyle=1;align=center;verticalAlign=top;childLayout=stackLayout;horizontal=1;startSize=30;horizontalStack=0;resizeParent=1;resizeParentMax=0;resizeLast=0;collapsible=1;marginBottom=0;" parent="RaD5Mg1ZpP_LwJ2OzvWb-1" vertex="1">
          <mxGeometry x="540" y="184" width="160" height="82" as="geometry" />
        </mxCell>
        <mxCell id="nV1S3fN-9psfoPiMfW_A-7" value="SujetoReal null" style="text;strokeColor=none;fillColor=none;align=center;verticalAlign=top;spacingLeft=4;spacingRight=4;overflow=hidden;rotatable=0;points=[[0,0.5],[1,0.5]];portConstraint=eastwest;" parent="nV1S3fN-9psfoPiMfW_A-6" vertex="1">
          <mxGeometry y="30" width="160" height="26" as="geometry" />
        </mxCell>
        <mxCell id="nV1S3fN-9psfoPiMfW_A-8" value="getNombre()" style="text;strokeColor=none;fillColor=none;align=center;verticalAlign=top;spacingLeft=4;spacingRight=4;overflow=hidden;rotatable=0;points=[[0,0.5],[1,0.5]];portConstraint=eastwest;" parent="nV1S3fN-9psfoPiMfW_A-6" vertex="1">
          <mxGeometry y="56" width="160" height="26" as="geometry" />
        </mxCell>
        <mxCell id="nV1S3fN-9psfoPiMfW_A-9" value="" style="endArrow=block;html=1;endFill=1;endSize=8;edgeStyle=orthogonalEdgeStyle;rounded=0;" parent="RaD5Mg1ZpP_LwJ2OzvWb-1" source="nV1S3fN-9psfoPiMfW_A-6" target="nV1S3fN-9psfoPiMfW_A-5" edge="1">
          <mxGeometry width="50" height="50" relative="1" as="geometry">
            <mxPoint x="285" y="173" as="sourcePoint" />
            <mxPoint x="335" y="123" as="targetPoint" />
            <Array as="points">
              <mxPoint x="620" y="160" />
              <mxPoint x="520" y="160" />
            </Array>
          </mxGeometry>
        </mxCell>
        <mxCell id="nV1S3fN-9psfoPiMfW_A-10" value="Class SujetoReal" style="swimlane;fontStyle=1;align=center;verticalAlign=top;childLayout=stackLayout;horizontal=1;startSize=30;horizontalStack=0;resizeParent=1;resizeParentMax=0;resizeLast=0;collapsible=1;marginBottom=0;" parent="RaD5Mg1ZpP_LwJ2OzvWb-1" vertex="1">
          <mxGeometry x="340" y="194" width="160" height="56" as="geometry" />
        </mxCell>
        <mxCell id="nV1S3fN-9psfoPiMfW_A-11" value="" style="endArrow=block;html=1;endFill=1;endSize=8;edgeStyle=orthogonalEdgeStyle;rounded=0;exitX=0.5;exitY=0;exitDx=0;exitDy=0;entryX=0.5;entryY=1;entryDx=0;entryDy=0;" parent="RaD5Mg1ZpP_LwJ2OzvWb-1" source="nV1S3fN-9psfoPiMfW_A-10" target="nV1S3fN-9psfoPiMfW_A-5" edge="1">
          <mxGeometry width="50" height="50" relative="1" as="geometry">
            <mxPoint x="285" y="173" as="sourcePoint" />
            <mxPoint x="335" y="123" as="targetPoint" />
            <Array as="points">
              <mxPoint x="420" y="160" />
              <mxPoint x="520" y="160" />
            </Array>
          </mxGeometry>
        </mxCell>
        <mxCell id="nV1S3fN-9psfoPiMfW_A-12" value="CLIENTE" style="rounded=1;whiteSpace=wrap;html=1;align=center;" parent="RaD5Mg1ZpP_LwJ2OzvWb-1" vertex="1">
          <mxGeometry x="720" y="190" width="110" height="40" as="geometry" />
        </mxCell>
        <mxCell id="nV1S3fN-9psfoPiMfW_A-13" value="" style="endArrow=diamond;html=1;endFill=1;endSize=8;edgeStyle=orthogonalEdgeStyle;rounded=0;exitX=1;exitY=0.5;exitDx=0;exitDy=0;entryX=0;entryY=0.5;entryDx=0;entryDy=0;" parent="RaD5Mg1ZpP_LwJ2OzvWb-1" target="nV1S3fN-9psfoPiMfW_A-7" edge="1">
          <mxGeometry width="50" height="50" relative="1" as="geometry">
            <mxPoint x="500" y="237" as="sourcePoint" />
            <mxPoint x="335" y="123" as="targetPoint" />
            <Array as="points">
              <mxPoint x="500" y="227" />
            </Array>
          </mxGeometry>
        </mxCell>
        <mxCell id="nV1S3fN-9psfoPiMfW_A-14" value="" style="endArrow=none;dashed=1;html=1;dashPattern=1 3;strokeWidth=2;exitX=1;exitY=0.25;exitDx=0;exitDy=0;" parent="RaD5Mg1ZpP_LwJ2OzvWb-1" source="nV1S3fN-9psfoPiMfW_A-10" target="nV1S3fN-9psfoPiMfW_A-12" edge="1">
          <mxGeometry width="50" height="50" relative="1" as="geometry">
            <mxPoint x="610" y="280" as="sourcePoint" />
            <mxPoint x="660" y="230" as="targetPoint" />
          </mxGeometry>
        </mxCell>
      </root>
    </mxGraphModel>
  </diagram>
  <diagram id="VDVKPKF1gikvpIkXrR5Z" name="5 Command">
    <mxGraphModel dx="868" dy="520" grid="1" gridSize="10" guides="1" tooltips="1" connect="1" arrows="1" fold="1" page="1" pageScale="1" pageWidth="850" pageHeight="1100" math="0" shadow="0">
      <root>
        <mxCell id="HDYYgDqa_MwTzngUXSnl-0" />
        <mxCell id="HDYYgDqa_MwTzngUXSnl-1" parent="HDYYgDqa_MwTzngUXSnl-0" />
        <mxCell id="1RWtAWf6MqOpUlER2shA-0" value="&lt;h1&gt;&lt;font color=&quot;#1a1a1a&quot;&gt;Command&lt;/font&gt;&lt;/h1&gt;Encapsula una petición en un objeto, &lt;br/&gt;permitiendo así parametrizar a los clientes con diferentes &lt;br/&gt;peticiones, hacer cola o llevar un registro de las peticiones &lt;br/&gt;y poder deshacer las operaciones.&lt;font color=&quot;#1a1a1a&quot;&gt;&lt;br&gt;&lt;br&gt;&lt;/font&gt;Se requieraregistrar los cambios o&lt;br&gt;deshacer las acciones ya que el patron guarda el &lt;br/&gt;estado anterior de un objeto al momento de aplicar una acción &lt;br/&gt;para luego poder deshacer la acción.&lt;br&gt;&lt;p&gt;&lt;/p&gt;" style="text;html=1;strokeColor=none;fillColor=none;spacing=5;spacingTop=-20;whiteSpace=wrap;overflow=hidden;rounded=0;align=right;" parent="HDYYgDqa_MwTzngUXSnl-1" vertex="1">
          <mxGeometry y="10" width="320" height="230" as="geometry" />
        </mxCell>
        <mxCell id="1RWtAWf6MqOpUlER2shA-1" value="" style="endArrow=none;html=1;endSize=8;entryX=1;entryY=0;entryDx=0;entryDy=0;exitX=1;exitY=1;exitDx=0;exitDy=0;" parent="HDYYgDqa_MwTzngUXSnl-1" source="1RWtAWf6MqOpUlER2shA-0" target="1RWtAWf6MqOpUlER2shA-0" edge="1">
          <mxGeometry width="50" height="50" relative="1" as="geometry">
            <mxPoint x="390" y="230" as="sourcePoint" />
            <mxPoint x="440" y="180" as="targetPoint" />
          </mxGeometry>
        </mxCell>
        <mxCell id="1RWtAWf6MqOpUlER2shA-2" value="Invocador" style="swimlane;fontStyle=1;align=center;verticalAlign=top;childLayout=stackLayout;horizontal=1;startSize=36;horizontalStack=0;resizeParent=1;resizeParentMax=0;resizeLast=0;collapsible=1;marginBottom=0;" parent="HDYYgDqa_MwTzngUXSnl-1" vertex="1">
          <mxGeometry x="330" y="57" width="160" height="43" as="geometry" />
        </mxCell>
        <mxCell id="1RWtAWf6MqOpUlER2shA-3" value="&lt;&lt;Interface&gt;&gt;&#xa;Orden" style="swimlane;fontStyle=1;align=center;verticalAlign=top;childLayout=stackLayout;horizontal=1;startSize=40;horizontalStack=0;resizeParent=1;resizeParentMax=0;resizeLast=0;collapsible=1;marginBottom=0;" parent="HDYYgDqa_MwTzngUXSnl-1" vertex="1">
          <mxGeometry x="570" y="57" width="160" height="66" as="geometry" />
        </mxCell>
        <mxCell id="1RWtAWf6MqOpUlER2shA-5" value="ejecutar()" style="text;strokeColor=none;fillColor=none;align=center;verticalAlign=top;spacingLeft=4;spacingRight=4;overflow=hidden;rotatable=0;points=[[0,0.5],[1,0.5]];portConstraint=eastwest;" parent="1RWtAWf6MqOpUlER2shA-3" vertex="1">
          <mxGeometry y="40" width="160" height="26" as="geometry" />
        </mxCell>
        <mxCell id="1RWtAWf6MqOpUlER2shA-8" value="" style="endArrow=block;html=1;endFill=1;endSize=8;edgeStyle=orthogonalEdgeStyle;rounded=0;" parent="HDYYgDqa_MwTzngUXSnl-1" source="1RWtAWf6MqOpUlER2shA-2" edge="1">
          <mxGeometry width="50" height="50" relative="1" as="geometry">
            <mxPoint x="175" y="173" as="sourcePoint" />
            <mxPoint x="570" y="79" as="targetPoint" />
            <Array as="points">
              <mxPoint x="570" y="79" />
            </Array>
          </mxGeometry>
        </mxCell>
        <mxCell id="cCxNVxHOHixZSvtt9r6K-5" style="edgeStyle=orthogonalEdgeStyle;rounded=0;orthogonalLoop=1;jettySize=auto;html=1;exitX=0.5;exitY=0;exitDx=0;exitDy=0;entryX=0.506;entryY=1.231;entryDx=0;entryDy=0;entryPerimeter=0;" parent="HDYYgDqa_MwTzngUXSnl-1" source="cCxNVxHOHixZSvtt9r6K-2" target="1RWtAWf6MqOpUlER2shA-5" edge="1">
          <mxGeometry relative="1" as="geometry">
            <Array as="points">
              <mxPoint x="651" y="160" />
            </Array>
          </mxGeometry>
        </mxCell>
        <mxCell id="cCxNVxHOHixZSvtt9r6K-2" value="OrdenConcretaA" style="swimlane;fontStyle=1;align=center;verticalAlign=top;childLayout=stackLayout;horizontal=1;startSize=30;horizontalStack=0;resizeParent=1;resizeParentMax=0;resizeLast=0;collapsible=1;marginBottom=0;" parent="HDYYgDqa_MwTzngUXSnl-1" vertex="1">
          <mxGeometry x="580" y="160" width="160" height="30" as="geometry" />
        </mxCell>
        <mxCell id="cCxNVxHOHixZSvtt9r6K-4" value="OrdenConcretaB" style="swimlane;fontStyle=1;align=center;verticalAlign=top;childLayout=stackLayout;horizontal=1;startSize=30;horizontalStack=0;resizeParent=1;resizeParentMax=0;resizeLast=0;collapsible=1;marginBottom=0;" parent="HDYYgDqa_MwTzngUXSnl-1" vertex="1">
          <mxGeometry x="680" y="200" width="160" height="30" as="geometry" />
        </mxCell>
        <mxCell id="cCxNVxHOHixZSvtt9r6K-6" style="edgeStyle=orthogonalEdgeStyle;rounded=0;orthogonalLoop=1;jettySize=auto;html=1;exitX=0.5;exitY=0;exitDx=0;exitDy=0;entryX=0.506;entryY=1.231;entryDx=0;entryDy=0;entryPerimeter=0;" parent="HDYYgDqa_MwTzngUXSnl-1" source="cCxNVxHOHixZSvtt9r6K-4" target="1RWtAWf6MqOpUlER2shA-5" edge="1">
          <mxGeometry relative="1" as="geometry">
            <Array as="points">
              <mxPoint x="760" y="153" />
              <mxPoint x="651" y="153" />
            </Array>
          </mxGeometry>
        </mxCell>
        <mxCell id="cCxNVxHOHixZSvtt9r6K-7" value="Receptor" style="swimlane;fontStyle=1;align=center;verticalAlign=top;childLayout=stackLayout;horizontal=1;startSize=36;horizontalStack=0;resizeParent=1;resizeParentMax=0;resizeLast=0;collapsible=1;marginBottom=0;" parent="HDYYgDqa_MwTzngUXSnl-1" vertex="1">
          <mxGeometry x="330" y="170" width="160" height="43" as="geometry" />
        </mxCell>
        <mxCell id="cCxNVxHOHixZSvtt9r6K-8" value="" style="endArrow=classic;html=1;dashed=1;" parent="HDYYgDqa_MwTzngUXSnl-1" source="cCxNVxHOHixZSvtt9r6K-2" target="cCxNVxHOHixZSvtt9r6K-7" edge="1">
          <mxGeometry width="50" height="50" relative="1" as="geometry">
            <mxPoint x="410" y="290" as="sourcePoint" />
            <mxPoint x="460" y="240" as="targetPoint" />
          </mxGeometry>
        </mxCell>
        <mxCell id="cCxNVxHOHixZSvtt9r6K-9" value="" style="endArrow=classic;html=1;dashed=1;" parent="HDYYgDqa_MwTzngUXSnl-1" source="cCxNVxHOHixZSvtt9r6K-4" target="cCxNVxHOHixZSvtt9r6K-7" edge="1">
          <mxGeometry width="50" height="50" relative="1" as="geometry">
            <mxPoint x="410" y="290" as="sourcePoint" />
            <mxPoint x="460" y="240" as="targetPoint" />
          </mxGeometry>
        </mxCell>
        <mxCell id="cCxNVxHOHixZSvtt9r6K-21" value="Enfermero" style="swimlane;fontStyle=1;align=center;verticalAlign=top;childLayout=stackLayout;horizontal=1;startSize=36;horizontalStack=0;resizeParent=1;resizeParentMax=0;resizeLast=0;collapsible=1;marginBottom=0;" parent="HDYYgDqa_MwTzngUXSnl-1" vertex="1">
          <mxGeometry x="550" y="276.5" width="160" height="43" as="geometry" />
        </mxCell>
        <mxCell id="cCxNVxHOHixZSvtt9r6K-22" value="IOrden" style="swimlane;fontStyle=1;align=center;verticalAlign=top;childLayout=stackLayout;horizontal=1;startSize=30;horizontalStack=0;resizeParent=1;resizeParentMax=0;resizeLast=0;collapsible=1;marginBottom=0;" parent="HDYYgDqa_MwTzngUXSnl-1" vertex="1">
          <mxGeometry x="790" y="270" width="160" height="56" as="geometry" />
        </mxCell>
        <mxCell id="cCxNVxHOHixZSvtt9r6K-23" value="ejecutar()" style="text;strokeColor=none;fillColor=none;align=center;verticalAlign=top;spacingLeft=4;spacingRight=4;overflow=hidden;rotatable=0;points=[[0,0.5],[1,0.5]];portConstraint=eastwest;" parent="cCxNVxHOHixZSvtt9r6K-22" vertex="1">
          <mxGeometry y="30" width="160" height="26" as="geometry" />
        </mxCell>
        <mxCell id="cCxNVxHOHixZSvtt9r6K-24" value="" style="endArrow=block;html=1;endFill=1;endSize=8;edgeStyle=orthogonalEdgeStyle;rounded=0;entryX=0;entryY=0.5;entryDx=0;entryDy=0;" parent="HDYYgDqa_MwTzngUXSnl-1" source="cCxNVxHOHixZSvtt9r6K-21" target="cCxNVxHOHixZSvtt9r6K-22" edge="1">
          <mxGeometry width="50" height="50" relative="1" as="geometry">
            <mxPoint x="395" y="373" as="sourcePoint" />
            <mxPoint x="445" y="323" as="targetPoint" />
            <Array as="points">
              <mxPoint x="730" y="298" />
              <mxPoint x="730" y="298" />
            </Array>
          </mxGeometry>
        </mxCell>
        <mxCell id="cCxNVxHOHixZSvtt9r6K-32" style="edgeStyle=orthogonalEdgeStyle;rounded=0;orthogonalLoop=1;jettySize=auto;html=1;exitX=0.481;exitY=0;exitDx=0;exitDy=0;endArrow=classic;endFill=1;exitPerimeter=0;" parent="HDYYgDqa_MwTzngUXSnl-1" source="cCxNVxHOHixZSvtt9r6K-26" edge="1">
          <mxGeometry relative="1" as="geometry">
            <mxPoint x="877" y="329" as="targetPoint" />
            <Array as="points">
              <mxPoint x="877" y="329" />
            </Array>
          </mxGeometry>
        </mxCell>
        <mxCell id="cCxNVxHOHixZSvtt9r6K-26" value="Cafe" style="swimlane;fontStyle=1;align=center;verticalAlign=top;childLayout=stackLayout;horizontal=1;startSize=30;horizontalStack=0;resizeParent=1;resizeParentMax=0;resizeLast=0;collapsible=1;marginBottom=0;" parent="HDYYgDqa_MwTzngUXSnl-1" vertex="1">
          <mxGeometry x="800" y="360" width="160" height="30" as="geometry" />
        </mxCell>
        <mxCell id="cCxNVxHOHixZSvtt9r6K-27" value="Palmada" style="swimlane;fontStyle=1;align=center;verticalAlign=top;childLayout=stackLayout;horizontal=1;startSize=30;horizontalStack=0;resizeParent=1;resizeParentMax=0;resizeLast=0;collapsible=1;marginBottom=0;" parent="HDYYgDqa_MwTzngUXSnl-1" vertex="1">
          <mxGeometry x="900" y="400" width="160" height="30" as="geometry" />
        </mxCell>
        <mxCell id="cCxNVxHOHixZSvtt9r6K-28" style="edgeStyle=orthogonalEdgeStyle;rounded=0;orthogonalLoop=1;jettySize=auto;html=1;exitX=0.5;exitY=0;exitDx=0;exitDy=0;endArrow=none;endFill=0;" parent="HDYYgDqa_MwTzngUXSnl-1" edge="1">
          <mxGeometry relative="1" as="geometry">
            <Array as="points">
              <mxPoint x="977" y="353" />
            </Array>
            <mxPoint x="977" y="400" as="sourcePoint" />
            <mxPoint x="877" y="353" as="targetPoint" />
          </mxGeometry>
        </mxCell>
        <mxCell id="cCxNVxHOHixZSvtt9r6K-29" value="Paciente" style="swimlane;fontStyle=1;align=center;verticalAlign=top;childLayout=stackLayout;horizontal=1;startSize=36;horizontalStack=0;resizeParent=1;resizeParentMax=0;resizeLast=0;collapsible=1;marginBottom=0;" parent="HDYYgDqa_MwTzngUXSnl-1" vertex="1">
          <mxGeometry x="550" y="370" width="160" height="43" as="geometry" />
        </mxCell>
        <mxCell id="cCxNVxHOHixZSvtt9r6K-30" value="" style="endArrow=classic;html=1;dashed=1;" parent="HDYYgDqa_MwTzngUXSnl-1" source="cCxNVxHOHixZSvtt9r6K-26" target="cCxNVxHOHixZSvtt9r6K-29" edge="1">
          <mxGeometry width="50" height="50" relative="1" as="geometry">
            <mxPoint x="630" y="490" as="sourcePoint" />
            <mxPoint x="680" y="440" as="targetPoint" />
          </mxGeometry>
        </mxCell>
        <mxCell id="cCxNVxHOHixZSvtt9r6K-31" value="" style="endArrow=classic;html=1;dashed=1;" parent="HDYYgDqa_MwTzngUXSnl-1" source="cCxNVxHOHixZSvtt9r6K-27" target="cCxNVxHOHixZSvtt9r6K-29" edge="1">
          <mxGeometry width="50" height="50" relative="1" as="geometry">
            <mxPoint x="630" y="490" as="sourcePoint" />
            <mxPoint x="680" y="440" as="targetPoint" />
          </mxGeometry>
        </mxCell>
        <mxCell id="cCxNVxHOHixZSvtt9r6K-33" value="Coleccion" style="swimlane;fontStyle=1;align=center;verticalAlign=top;childLayout=stackLayout;horizontal=1;startSize=36;horizontalStack=0;resizeParent=1;resizeParentMax=0;resizeLast=0;collapsible=1;marginBottom=0;" parent="HDYYgDqa_MwTzngUXSnl-1" vertex="1">
          <mxGeometry x="60" y="486.5" width="160" height="43" as="geometry" />
        </mxCell>
        <mxCell id="cCxNVxHOHixZSvtt9r6K-34" value="&lt;&lt;OrdenEnAula1&gt;&gt;" style="swimlane;fontStyle=1;align=center;verticalAlign=top;childLayout=stackLayout;horizontal=1;startSize=30;horizontalStack=0;resizeParent=1;resizeParentMax=0;resizeLast=0;collapsible=1;marginBottom=0;" parent="HDYYgDqa_MwTzngUXSnl-1" vertex="1">
          <mxGeometry x="300" y="480" width="160" height="56" as="geometry" />
        </mxCell>
        <mxCell id="cCxNVxHOHixZSvtt9r6K-35" value="ejecutar()" style="text;strokeColor=none;fillColor=none;align=center;verticalAlign=top;spacingLeft=4;spacingRight=4;overflow=hidden;rotatable=0;points=[[0,0.5],[1,0.5]];portConstraint=eastwest;" parent="cCxNVxHOHixZSvtt9r6K-34" vertex="1">
          <mxGeometry y="30" width="160" height="26" as="geometry" />
        </mxCell>
        <mxCell id="cCxNVxHOHixZSvtt9r6K-36" value="" style="endArrow=block;html=1;endFill=1;endSize=8;edgeStyle=orthogonalEdgeStyle;rounded=0;entryX=0;entryY=0.5;entryDx=0;entryDy=0;" parent="HDYYgDqa_MwTzngUXSnl-1" source="cCxNVxHOHixZSvtt9r6K-33" target="cCxNVxHOHixZSvtt9r6K-34" edge="1">
          <mxGeometry width="50" height="50" relative="1" as="geometry">
            <mxPoint x="-95" y="583" as="sourcePoint" />
            <mxPoint x="-45" y="533" as="targetPoint" />
            <Array as="points">
              <mxPoint x="240" y="508" />
              <mxPoint x="240" y="508" />
            </Array>
          </mxGeometry>
        </mxCell>
        <mxCell id="cCxNVxHOHixZSvtt9r6K-37" style="edgeStyle=orthogonalEdgeStyle;rounded=0;orthogonalLoop=1;jettySize=auto;html=1;exitX=0.481;exitY=0;exitDx=0;exitDy=0;endArrow=classic;endFill=1;exitPerimeter=0;" parent="HDYYgDqa_MwTzngUXSnl-1" source="cCxNVxHOHixZSvtt9r6K-38" edge="1">
          <mxGeometry relative="1" as="geometry">
            <mxPoint x="387" y="539" as="targetPoint" />
            <Array as="points">
              <mxPoint x="387" y="539" />
            </Array>
          </mxGeometry>
        </mxCell>
        <mxCell id="cCxNVxHOHixZSvtt9r6K-38" value="OrdenInicio" style="swimlane;fontStyle=1;align=center;verticalAlign=top;childLayout=stackLayout;horizontal=1;startSize=30;horizontalStack=0;resizeParent=1;resizeParentMax=0;resizeLast=0;collapsible=1;marginBottom=0;" parent="HDYYgDqa_MwTzngUXSnl-1" vertex="1">
          <mxGeometry x="310" y="570" width="160" height="30" as="geometry" />
        </mxCell>
        <mxCell id="cCxNVxHOHixZSvtt9r6K-39" value="OrdenAulaLlena" style="swimlane;fontStyle=1;align=center;verticalAlign=top;childLayout=stackLayout;horizontal=1;startSize=30;horizontalStack=0;resizeParent=1;resizeParentMax=0;resizeLast=0;collapsible=1;marginBottom=0;" parent="HDYYgDqa_MwTzngUXSnl-1" vertex="1">
          <mxGeometry x="410" y="610" width="160" height="30" as="geometry" />
        </mxCell>
        <mxCell id="cCxNVxHOHixZSvtt9r6K-40" style="edgeStyle=orthogonalEdgeStyle;rounded=0;orthogonalLoop=1;jettySize=auto;html=1;exitX=0.5;exitY=0;exitDx=0;exitDy=0;endArrow=none;endFill=0;" parent="HDYYgDqa_MwTzngUXSnl-1" edge="1">
          <mxGeometry relative="1" as="geometry">
            <Array as="points">
              <mxPoint x="487" y="563" />
            </Array>
            <mxPoint x="487" y="610" as="sourcePoint" />
            <mxPoint x="387" y="563" as="targetPoint" />
          </mxGeometry>
        </mxCell>
        <mxCell id="cCxNVxHOHixZSvtt9r6K-41" value="Aula" style="swimlane;fontStyle=1;align=center;verticalAlign=top;childLayout=stackLayout;horizontal=1;startSize=36;horizontalStack=0;resizeParent=1;resizeParentMax=0;resizeLast=0;collapsible=1;marginBottom=0;" parent="HDYYgDqa_MwTzngUXSnl-1" vertex="1">
          <mxGeometry x="60" y="580" width="160" height="43" as="geometry" />
        </mxCell>
        <mxCell id="cCxNVxHOHixZSvtt9r6K-42" value="" style="endArrow=classic;html=1;dashed=1;" parent="HDYYgDqa_MwTzngUXSnl-1" source="cCxNVxHOHixZSvtt9r6K-38" target="cCxNVxHOHixZSvtt9r6K-41" edge="1">
          <mxGeometry width="50" height="50" relative="1" as="geometry">
            <mxPoint x="140" y="700" as="sourcePoint" />
            <mxPoint x="190" y="650" as="targetPoint" />
          </mxGeometry>
        </mxCell>
        <mxCell id="cCxNVxHOHixZSvtt9r6K-43" value="" style="endArrow=classic;html=1;dashed=1;" parent="HDYYgDqa_MwTzngUXSnl-1" source="cCxNVxHOHixZSvtt9r6K-39" target="cCxNVxHOHixZSvtt9r6K-41" edge="1">
          <mxGeometry width="50" height="50" relative="1" as="geometry">
            <mxPoint x="140" y="700" as="sourcePoint" />
            <mxPoint x="190" y="650" as="targetPoint" />
          </mxGeometry>
        </mxCell>
      </root>
    </mxGraphModel>
  </diagram>
</mxfile>
